<svg xmlns="http://www.w3.org/2000/svg" width="810" viewBox="0 0 810 810" height="810" version="1.0"><defs><clipPath id="a"><path d="M 24 249.210938 L 317 249.210938 L 317 571.710938 L 24 571.710938 Z M 24 249.210938"/></clipPath><clipPath id="b"><path d="M 257 528 L 302 528 L 302 571.710938 L 257 571.710938 Z M 257 528"/></clipPath><clipPath id="c"><path d="M 264 550 L 288 550 L 288 571.710938 L 264 571.710938 Z M 264 550"/></clipPath></defs><path transform="matrix(.00336 -.2011 .20106 .00336 -23.643 675.286)" fill="#EA4335" d="M 918.38524 1125.599533 L 1059.791638 1125.607684 L 1059.783899 1235.610965 L 918.39692 1235.60249 Z M 918.38524 1125.599533" stroke="#000" stroke-width="7.83"/><path transform="matrix(.00318 -.2011 .20106 .00318 -48.642 699.436)" fill="#FFF" d="M 902.771937 1233.802185 L 1071.116771 1233.804563 L 1071.110896 1373.608792 L 902.766061 1373.606415 Z M 902.771937 1233.802185" stroke="#000" stroke-width="7.83"/><path transform="matrix(.00247 -.20112 .20107 .00247 -9.534 674.382)" fill="#FFF" d="M 1008.394096 1132.599625 L 1025.991026 1132.596788 L 1025.998441 1152.140341 L 1008.401273 1152.123753 Z M 1008.394096 1132.599625" stroke="#000" stroke-width="7.83"/><path transform="matrix(.00247 -.20112 .20107 .00247 -19.538 663.52)" fill="#FFF" d="M 956.133507 1130.697501 L 973.730436 1130.694665 L 973.718432 1150.238456 L 956.121503 1150.241293 Z M 956.133507 1130.697501" stroke="#000" stroke-width="7.83"/><g clip-path="url(#a)"><path fill="#FFF" d="M 256.175781 266.414062 C 233.59375 254.628906 203.371094 249.28125 183.027344 249.617188 C 150.511719 249.675781 119.953125 257.582031 95.320312 278.613281 C 74.894531 295.996094 58.382812 327.652344 62.316406 350.667969 C 62.789062 353.414062 63.613281 355.40625 63.304688 357.136719 C 41.300781 387.089844 17.726562 407.441406 25.890625 420.0625 C 28.1875 423.625 32.101562 425.570312 35.726562 427.425781 C 38.980469 429.109375 37.488281 428.578125 38.972656 429.023438 C 42.671875 430.128906 45.480469 429.671875 47.773438 431.039062 C 47.890625 431.105469 48.300781 431.519531 48.289062 431.519531 C 48.285156 431.515625 48.292969 431.527344 48.292969 431.554688 C 48.570312 432.679688 46.457031 436.789062 46.308594 439.15625 C 46.191406 442.691406 37.785156 446.945312 42.105469 455.015625 C 43.390625 457.449219 45.6875 459.085938 47.746094 460.601562 C 46.421875 462.011719 45.515625 462.890625 44.578125 464.113281 C 41.867188 467.675781 42.230469 470.925781 44.175781 473.1875 C 47.066406 476.488281 50.496094 479.875 51.121094 483.164062 C 51.449219 484.890625 51.234375 485.382812 48.097656 494.445312 C 45.472656 502.191406 43.710938 509.046875 47.394531 515.71875 C 47.804688 516.453125 49.320312 518.648438 49.800781 519.191406 C 61.386719 532.800781 78.4375 532.070312 95.566406 531.347656 C 105.082031 530.871094 114.484375 529.566406 118 536.296875 C 118.644531 537.515625 119.089844 538.859375 119.445312 540.179688 C 120.691406 545.011719 122.027344 549.699219 122.441406 553.371094 C 123.003906 557.75 122.203125 561.195312 124.3125 565.046875 C 126.878906 569.203125 131.164062 570.78125 136.003906 571.316406 C 139.542969 571.640625 207.773438 571.0625 207.976562 571.050781 C 213.300781 570.765625 216.90625 567.421875 218.300781 563.40625 C 219.085938 561.359375 218.859375 562.5625 219.570312 522.886719 L 213.007812 522.769531 C 213.007812 522.847656 212.347656 559.8125 212.339844 559.890625 C 212.089844 562.664062 210.246094 564.234375 208.0625 564.476562 C 205.730469 564.523438 219.3125 564.425781 142.179688 564.921875 C 137.4375 564.953125 133.394531 565.023438 130.476562 562.414062 C 129.089844 561.214844 129.34375 557.585938 129.160156 554.742188 C 128.734375 548.445312 125.4375 537.242188 125.25 536.683594 C 119.628906 519.617188 102.683594 525.355469 82.257812 525.128906 C 70.277344 524.957031 59.636719 522.570312 53.152344 512.566406 C 49.4375 506.8125 54.617188 496.6875 57.085938 488.296875 C 59.589844 479.890625 54.449219 474.960938 49.234375 469.003906 C 50.308594 466.332031 58.246094 461.953125 53.617188 456.90625 C 52.039062 455.222656 46.746094 452.738281 47.535156 449.988281 C 48.160156 447.816406 52.054688 445.074219 52.769531 440.417969 C 52.917969 439.242188 52.804688 439.742188 52.925781 439.273438 C 53.726562 436.25 57.054688 430.546875 52.542969 426.484375 C 49.511719 423.878906 46.945312 423.761719 43.335938 423.238281 C 41.621094 422.992188 40.84375 422.734375 40.84375 422.734375 C 40.191406 422.34375 39.203125 421.835938 38.722656 421.589844 C 31.964844 418.125 29.835938 416.679688 31.335938 411.695312 C 34.15625 402.152344 46.96875 389.207031 64.75 366.011719 C 65.652344 364.894531 66.957031 363.53125 68.027344 362.019531 C 71.382812 357.25 69.476562 353.640625 68.78125 349.558594 C 64.304688 323.851562 91.808594 256.355469 182.023438 256.183594 C 275.609375 256 335.71875 323.945312 298.476562 420.167969 C 291.847656 437.308594 274.777344 451.246094 268.285156 474.136719 C 266.015625 482.410156 268.390625 502.492188 269.457031 511.507812 L 275.972656 510.707031 C 275.1875 504.09375 272.75 482.945312 274.476562 476.460938 C 277.792969 461.179688 293.085938 443.820312 299.4375 432.851562 C 303.152344 426.578125 304.015625 424.046875 305.660156 419.796875 C 329.277344 356.777344 313.367188 296.371094 256.175781 266.414062 Z M 256.175781 266.414062"/></g><path fill="#EA4335" d="M 265.949219 540.90625 C 265.949219 540.90625 266.253906 542.683594 266.707031 545.347656 C 267.164062 548.015625 267.804688 551.5625 268.464844 555.113281 C 269.121094 558.660156 269.820312 562.207031 270.355469 564.867188 C 270.628906 566.199219 270.855469 567.308594 271.015625 568.082031 C 271.175781 568.859375 271.269531 569.304688 271.269531 569.304688 L 292.917969 564.757812 C 292.917969 564.757812 292.828125 564.328125 292.675781 563.585938 C 292.523438 562.835938 292.304688 561.769531 292.039062 560.488281 C 291.523438 557.921875 290.847656 554.492188 290.210938 551.050781 C 289.570312 547.605469 288.949219 544.160156 288.503906 541.570312 C 288.0625 538.976562 287.769531 537.25 287.769531 537.25 Z M 265.949219 540.90625"/><g clip-path="url(#b)"><path transform="matrix(.20109 0 0 .20113 18.15 242.887)" fill="none" d="M 1232.294882 1481.700268 C 1232.294882 1481.700268 1233.81008 1490.536926 1236.063451 1503.782204 C 1238.336247 1517.046903 1241.522047 1534.681378 1244.804975 1552.335274 C 1248.068478 1569.969749 1251.545662 1587.604224 1254.206971 1600.83008 C 1255.566764 1607.452719 1256.693449 1612.968348 1257.489899 1616.813751 C 1258.286349 1620.678575 1258.752564 1622.892595 1258.752564 1622.892595 L 1366.409297 1600.286286 C 1366.409297 1600.286286 1365.962508 1598.149951 1365.20491 1594.459918 C 1364.447311 1590.731042 1363.359477 1585.429046 1362.038535 1579.058884 C 1359.474354 1566.299137 1356.113724 1549.247299 1352.947349 1532.137197 C 1349.761549 1515.007674 1346.672877 1497.878151 1344.458358 1485.001876 C 1342.263264 1472.106181 1340.806343 1463.521998 1340.806343 1463.521998 Z M 1232.294882 1481.700268" stroke="#000" stroke-width="7.83"/></g><path transform="matrix(.20109 0 0 .20113 18.15 242.887)" fill="#FFF" d="M 1197.309358 1346.004148 C 1197.309358 1346.004148 1197.639593 1348.684277 1198.222361 1353.384214 C 1198.80513 1358.084151 1199.679282 1364.765054 1200.728265 1372.786021 C 1202.865082 1388.827955 1205.856626 1410.133042 1209.100703 1431.360445 C 1212.305929 1452.587847 1215.763688 1473.737564 1218.424996 1489.585286 C 1219.765363 1497.509147 1220.892049 1504.112365 1221.688499 1508.734617 C 1222.484949 1513.356869 1222.951164 1515.998156 1222.951164 1515.998156 L 1360.659317 1491.85757 C 1360.659317 1491.85757 1360.212528 1489.313389 1359.435503 1484.865928 C 1358.677904 1480.418467 1357.59007 1474.048304 1356.288554 1466.415761 C 1353.724374 1451.131255 1350.383169 1430.738965 1347.313922 1410.346676 C 1344.205825 1389.973808 1341.35026 1369.60094 1339.310571 1354.335854 C 1338.319865 1346.722733 1337.484563 1340.371991 1336.940646 1335.92453 L 1336.066494 1328.952309 L 1197.289932 1346.004148 Z M 1197.309358 1346.004148" stroke="#000" stroke-width="7.83"/><path transform="matrix(.20109 0 0 .20113 18.15 242.887)" fill="#FFF" d="M 1321.808096 1568.105311 L 1325.207577 1585.293098 L 1344.302953 1581.505958 L 1341.000599 1564.492963 Z M 1321.808096 1568.105311" stroke="#000" stroke-width="7.83"/><path fill="#FFF" d="M 273.671875 560.496094 L 274.355469 564.015625 L 278.214844 563.253906 L 277.53125 559.773438 Z M 273.671875 560.496094"/><g clip-path="url(#c)"><path transform="matrix(.20109 0 0 .20113 18.15 242.887)" fill="none" d="M 1270.699314 1579.097726 L 1274.098796 1596.596253 L 1293.291299 1592.809113 L 1289.891817 1575.504799 Z M 1270.699314 1579.097726" stroke="#000" stroke-width="7.83"/></g><path fill="#FFF" d="M 290.5625 341.765625 C 290.019531 341.167969 290.007812 341.148438 289.605469 339.757812 C 288.308594 335.28125 285.15625 329.113281 281.207031 326.746094 L 280.023438 326.039062 C 279.777344 323.160156 279.761719 318.179688 275.046875 312.082031 C 272.425781 308.695312 268.558594 305.5625 264.941406 303.628906 C 264.523438 301.910156 263.617188 299.679688 260.390625 296.617188 C 258.679688 294.988281 252.386719 282.0625 228.515625 277.285156 C 225.21875 276.625 220.753906 272.613281 206.265625 272.988281 C 198.179688 268.640625 190.1875 268.347656 181.367188 270.460938 C 173.050781 269.183594 166.023438 269.757812 158.390625 272.664062 C 143.898438 271.25 132.628906 275.359375 124.371094 283.152344 C 112.132812 281.523438 101.265625 299.65625 95.539062 303.019531 C 90.777344 305.824219 87.386719 311.746094 85.546875 317.238281 C 84.847656 319.339844 84.6875 318.84375 83.242188 321.710938 C 79.171875 329.832031 82.972656 333.007812 82.972656 333.355469 C 82.972656 333.78125 76.265625 341.859375 88.777344 355.148438 C 90.734375 364.652344 96.742188 373.414062 118.476562 377.417969 C 119.199219 379.71875 119.96875 380.433594 122.105469 382.625 C 122.289062 384.222656 122.335938 384.871094 122.65625 385.644531 C 122.910156 386.257812 122.925781 386.351562 122.835938 386.765625 C 121.511719 392.878906 130.699219 396.792969 132.726562 398.476562 C 146.972656 410.269531 159.40625 408.027344 163.738281 408.457031 C 166.492188 408.726562 172.296875 408.042969 178.863281 406.675781 C 180.664062 406.300781 180.558594 406.265625 180.785156 406.882812 C 183.753906 414.882812 191.011719 419.429688 191.394531 420.074219 C 195.390625 426.65625 202.890625 439.851562 204.082031 443.195312 C 205.648438 447.5625 208.652344 452.011719 213.070312 453.171875 C 214.746094 453.613281 216.375 453.109375 217.320312 452.992188 C 223.902344 452.183594 214.789062 437.4375 215.527344 435.515625 C 215.601562 435.328125 216.476562 435.699219 220.238281 436.488281 C 224.867188 437.460938 226.941406 436.675781 231.683594 437.34375 C 235.53125 437.882812 238.226562 437.621094 245.203125 436.023438 C 250.851562 434.730469 254.214844 433.433594 257.8125 431.160156 C 262.421875 428.246094 265.917969 423.8125 266.265625 420.445312 C 266.324219 419.855469 266.332031 419.847656 267.019531 419.144531 C 268.265625 417.871094 268.707031 416.839844 269.121094 414.265625 C 269.410156 412.46875 269.320312 413.554688 268.5625 409.601562 C 275.140625 409.597656 282.0625 409.199219 288.324219 402.707031 C 294.664062 396.136719 296.820312 386.066406 297.207031 376.949219 C 297.285156 375.039062 297.890625 349.820312 290.566406 341.765625 Z M 290.5625 341.765625"/><path fill="#FFF" d="M 130.730469 377.664062 L 134.429688 377.664062 C 135.015625 377.664062 135.433594 378.230469 135.261719 378.792969 L 133.773438 383.578125 L 136.28125 383.601562 C 136.941406 383.609375 137.300781 384.371094 136.886719 384.882812 L 130.5 392.789062 C 130.160156 393.210938 129.488281 392.835938 129.667969 392.324219 L 131.554688 386.957031 L 129.582031 386.914062 C 129.128906 386.90625 128.777344 386.507812 128.824219 386.054688 C 129 384.363281 129.390625 380.542969 129.574219 378.710938 C 129.632812 378.113281 130.132812 377.664062 130.730469 377.664062 Z M 130.730469 377.664062"/><path fill="#FFF" d="M 209.238281 436.359375 L 211.320312 436.359375 C 211.652344 436.359375 211.886719 436.679688 211.789062 436.996094 L 210.949219 439.691406 L 212.363281 439.703125 C 212.734375 439.707031 212.9375 440.136719 212.703125 440.425781 L 209.109375 444.875 C 208.917969 445.113281 208.539062 444.902344 208.640625 444.613281 L 209.703125 441.589844 L 208.59375 441.566406 C 208.335938 441.5625 208.140625 441.339844 208.164062 441.085938 C 208.261719 440.132812 208.484375 437.980469 208.585938 436.949219 C 208.621094 436.617188 208.902344 436.359375 209.238281 436.359375 Z M 209.238281 436.359375"/><path fill="#FFF" d="M 241.335938 331.28125 L 245.992188 331.28125 C 246.730469 331.28125 247.253906 331.996094 247.035156 332.703125 L 245.167969 338.722656 L 248.320312 338.75 C 249.148438 338.757812 249.601562 339.71875 249.082031 340.363281 L 241.050781 350.304688 C 240.621094 350.835938 239.777344 350.363281 240.003906 349.71875 L 242.378906 342.96875 L 239.894531 342.914062 C 239.324219 342.902344 238.882812 342.40625 238.941406 341.835938 C 239.164062 339.707031 239.65625 334.902344 239.882812 332.597656 C 239.957031 331.851562 240.585938 331.28125 241.335938 331.28125 Z M 241.335938 331.28125"/><path fill="#FFF" d="M 266.25 391.363281 L 271.246094 391.363281 C 272.035156 391.363281 272.601562 392.128906 272.367188 392.886719 L 270.359375 399.34375 L 273.746094 399.375 C 274.632812 399.386719 275.121094 400.414062 274.5625 401.105469 L 265.945312 411.773438 C 265.484375 412.339844 264.578125 411.835938 264.820312 411.144531 L 267.367188 403.902344 L 264.703125 403.84375 C 264.089844 403.832031 263.621094 403.296875 263.683594 402.6875 C 263.917969 400.402344 264.449219 395.246094 264.691406 392.773438 C 264.773438 391.972656 265.445312 391.363281 266.25 391.363281 Z M 266.25 391.363281"/><path fill="#FFF" d="M 265.871094 335.097656 L 273.175781 335.097656 C 274.335938 335.097656 275.164062 336.21875 274.820312 337.328125 L 271.882812 346.78125 L 276.839844 346.828125 C 278.136719 346.839844 278.847656 348.347656 278.03125 349.359375 L 265.417969 364.972656 C 264.746094 365.804688 263.417969 365.066406 263.777344 364.054688 L 267.503906 353.449219 L 263.605469 353.367188 C 262.707031 353.347656 262.015625 352.566406 262.109375 351.675781 C 262.453125 348.328125 263.230469 340.78125 263.589844 337.164062 C 263.703125 335.992188 264.691406 335.097656 265.871094 335.097656 Z M 265.871094 335.097656"/><path fill="#FFF" d="M 134.605469 284.230469 L 141.539062 284.230469 C 142.640625 284.230469 143.425781 285.296875 143.097656 286.347656 L 140.308594 295.316406 L 145.011719 295.363281 C 146.246094 295.375 146.921875 296.804688 146.144531 297.765625 L 134.175781 312.578125 C 133.535156 313.371094 132.277344 312.667969 132.617188 311.710938 L 136.152344 301.648438 L 132.453125 301.570312 C 131.601562 301.550781 130.949219 300.808594 131.035156 299.960938 C 131.363281 296.785156 132.097656 289.625 132.4375 286.191406 C 132.550781 285.078125 133.484375 284.230469 134.605469 284.230469 Z M 134.605469 284.230469"/><path fill="#FFF" d="M 126.394531 323.519531 L 132.515625 323.519531 C 133.488281 323.519531 134.179688 324.460938 133.890625 325.386719 L 131.433594 333.304688 L 135.582031 333.34375 C 136.671875 333.355469 137.265625 334.617188 136.582031 335.464844 L 126.019531 348.539062 C 125.453125 349.238281 124.34375 348.617188 124.640625 347.769531 L 127.761719 338.890625 L 124.5 338.820312 C 123.746094 338.804688 123.167969 338.152344 123.246094 337.402344 C 123.535156 334.601562 124.183594 328.28125 124.484375 325.25 C 124.582031 324.269531 125.410156 323.519531 126.394531 323.519531 Z M 126.394531 323.519531"/><path fill="#FFF" d="M 284.53125 389.011719 L 286.59375 389.011719 C 286.921875 389.011719 287.152344 389.328125 287.054688 389.640625 L 286.226562 392.308594 L 287.625 392.320312 C 287.992188 392.324219 288.191406 392.75 287.960938 393.035156 L 284.402344 397.441406 C 284.214844 397.675781 283.839844 397.464844 283.941406 397.179688 L 284.992188 394.1875 L 283.890625 394.164062 C 283.640625 394.160156 283.445312 393.941406 283.46875 393.6875 C 283.566406 392.742188 283.785156 390.613281 283.886719 389.59375 C 283.917969 389.261719 284.199219 389.011719 284.53125 389.011719 Z M 284.53125 389.011719"/><path fill="#FFF" d="M 229.191406 289.84375 L 236.125 289.84375 C 237.222656 289.84375 238.007812 290.910156 237.683594 291.960938 L 234.894531 300.929688 L 239.597656 300.972656 C 240.832031 300.984375 241.503906 302.414062 240.730469 303.375 L 228.765625 318.1875 C 228.125 318.976562 226.867188 318.277344 227.203125 317.316406 L 230.742188 307.257812 L 227.042969 307.179688 C 226.191406 307.160156 225.535156 306.417969 225.625 305.570312 C 225.949219 302.398438 226.6875 295.238281 227.027344 291.804688 C 227.136719 290.691406 228.074219 289.84375 229.191406 289.84375 Z M 229.191406 289.84375"/><path fill="#FFF" d="M 184.910156 393.242188 L 188.183594 393.242188 C 188.699219 393.242188 189.070312 393.742188 188.917969 394.238281 L 187.601562 398.46875 L 189.820312 398.492188 C 190.402344 398.496094 190.71875 399.171875 190.355469 399.621094 L 184.710938 406.609375 C 184.410156 406.984375 183.816406 406.652344 183.976562 406.199219 L 185.644531 401.453125 L 183.898438 401.417969 C 183.496094 401.40625 183.1875 401.058594 183.230469 400.660156 C 183.382812 399.160156 183.730469 395.785156 183.890625 394.164062 C 183.941406 393.640625 184.382812 393.242188 184.910156 393.242188 Z M 184.910156 393.242188"/><path fill="#FFF" d="M 115.660156 356.828125 L 119.558594 356.828125 C 120.175781 356.828125 120.617188 357.425781 120.433594 358.015625 L 118.867188 363.058594 L 121.511719 363.085938 C 122.203125 363.089844 122.582031 363.894531 122.144531 364.433594 L 115.417969 372.761719 C 115.058594 373.207031 114.351562 372.8125 114.542969 372.273438 L 116.53125 366.617188 L 114.453125 366.574219 C 113.972656 366.5625 113.605469 366.144531 113.652344 365.667969 C 113.835938 363.882812 114.25 359.859375 114.441406 357.929688 C 114.503906 357.304688 115.03125 356.828125 115.660156 356.828125 Z M 115.660156 356.828125"/><path fill="#FFF" d="M 250.304688 405.09375 L 252.433594 405.09375 C 252.773438 405.09375 253.015625 405.421875 252.914062 405.746094 L 252.058594 408.5 L 253.503906 408.515625 C 253.878906 408.519531 254.085938 408.957031 253.851562 409.25 L 250.175781 413.800781 C 249.976562 414.042969 249.589844 413.828125 249.695312 413.535156 L 250.78125 410.445312 L 249.644531 410.421875 C 249.382812 410.414062 249.183594 410.1875 249.210938 409.925781 C 249.308594 408.949219 249.535156 406.75 249.640625 405.699219 C 249.675781 405.355469 249.960938 405.09375 250.304688 405.09375 Z M 250.304688 405.09375"/><path fill="#FFF" d="M 285.515625 350.15625 L 288.066406 350.15625 C 288.472656 350.15625 288.761719 350.546875 288.640625 350.933594 L 287.617188 354.234375 L 289.347656 354.25 C 289.800781 354.257812 290.046875 354.78125 289.761719 355.136719 L 285.359375 360.585938 C 285.125 360.878906 284.660156 360.621094 284.785156 360.265625 L 286.085938 356.5625 L 284.726562 356.535156 C 284.410156 356.527344 284.171875 356.253906 284.203125 355.945312 C 284.324219 354.777344 284.59375 352.140625 284.71875 350.878906 C 284.761719 350.46875 285.105469 350.15625 285.515625 350.15625 Z M 285.515625 350.15625"/><path fill="#FFF" d="M 233.535156 396.699219 L 238.039062 396.699219 C 238.753906 396.699219 239.265625 397.390625 239.054688 398.074219 L 237.242188 403.902344 L 240.296875 403.929688 C 241.097656 403.9375 241.539062 404.867188 241.035156 405.492188 L 233.257812 415.117188 C 232.839844 415.632812 232.023438 415.175781 232.242188 414.550781 L 234.542969 408.015625 L 232.140625 407.964844 C 231.585938 407.953125 231.160156 407.46875 231.214844 406.917969 C 231.429688 404.855469 231.90625 400.203125 232.128906 397.972656 C 232.199219 397.25 232.808594 396.699219 233.535156 396.699219 Z M 233.535156 396.699219"/><path fill="#FFF" d="M 203.394531 317.027344 L 210.761719 317.027344 C 211.929688 317.027344 212.761719 318.160156 212.414062 319.277344 L 209.457031 328.800781 L 214.449219 328.847656 C 215.757812 328.863281 216.476562 330.382812 215.652344 331.398438 L 202.941406 347.132812 C 202.261719 347.972656 200.925781 347.226562 201.285156 346.207031 L 205.042969 335.523438 L 201.113281 335.441406 C 200.210938 335.421875 199.511719 334.632812 199.605469 333.730469 C 199.953125 330.359375 200.734375 322.753906 201.097656 319.109375 C 201.214844 317.925781 202.207031 317.027344 203.394531 317.027344 Z M 203.394531 317.027344"/><path fill="#FFF" d="M 158.671875 280.824219 L 161.285156 280.824219 C 161.699219 280.824219 161.996094 281.226562 161.871094 281.625 L 160.820312 285.003906 L 162.59375 285.019531 C 163.058594 285.027344 163.3125 285.566406 163.019531 285.925781 L 158.507812 291.511719 C 158.269531 291.808594 157.792969 291.542969 157.921875 291.183594 L 159.253906 287.390625 L 157.859375 287.359375 C 157.539062 287.355469 157.292969 287.074219 157.324219 286.753906 C 157.449219 285.558594 157.726562 282.859375 157.855469 281.5625 C 157.894531 281.144531 158.25 280.824219 158.671875 280.824219 Z M 158.671875 280.824219"/><path fill="#FFF" d="M 165.476562 387.996094 L 169.25 387.996094 C 169.847656 387.996094 170.273438 388.578125 170.097656 389.148438 L 168.578125 394.03125 L 171.140625 394.054688 C 171.808594 394.0625 172.175781 394.839844 171.753906 395.363281 L 165.242188 403.421875 C 164.894531 403.855469 164.210938 403.472656 164.394531 402.949219 L 166.316406 397.476562 L 164.304688 397.433594 C 163.839844 397.421875 163.484375 397.019531 163.53125 396.558594 C 163.710938 394.828125 164.109375 390.933594 164.296875 389.0625 C 164.355469 388.457031 164.867188 387.996094 165.476562 387.996094 Z M 165.476562 387.996094"/><path fill="#FFF" d="M 147.996094 388.816406 L 150.632812 388.816406 C 151.050781 388.816406 151.347656 389.222656 151.226562 389.621094 L 150.164062 393.035156 L 151.953125 393.050781 C 152.421875 393.058594 152.679688 393.601562 152.382812 393.964844 L 147.832031 399.601562 C 147.589844 399.902344 147.109375 399.636719 147.238281 399.269531 L 148.582031 395.441406 L 147.175781 395.414062 C 146.851562 395.40625 146.605469 395.125 146.636719 394.800781 C 146.761719 393.59375 147.042969 390.871094 147.171875 389.5625 C 147.210938 389.140625 147.570312 388.816406 147.996094 388.816406 Z M 147.996094 388.816406"/><path fill="#FFF" d="M 287.96875 370.078125 L 290.378906 370.078125 C 290.761719 370.078125 291.035156 370.449219 290.921875 370.8125 L 289.953125 373.933594 L 291.589844 373.949219 C 292.015625 373.953125 292.25 374.449219 291.980469 374.785156 L 287.820312 379.933594 C 287.597656 380.210938 287.160156 379.964844 287.277344 379.632812 L 288.507812 376.132812 L 287.222656 376.105469 C 286.925781 376.101562 286.699219 375.84375 286.730469 375.546875 C 286.84375 374.445312 287.097656 371.953125 287.214844 370.761719 C 287.253906 370.371094 287.582031 370.078125 287.96875 370.078125 Z M 287.96875 370.078125"/><path fill="#FFF" d="M 214.695312 398.21875 L 216.734375 398.21875 C 217.058594 398.21875 217.289062 398.535156 217.195312 398.84375 L 216.375 401.484375 L 217.757812 401.496094 C 218.121094 401.5 218.320312 401.921875 218.089844 402.203125 L 214.570312 406.5625 C 214.382812 406.792969 214.011719 406.589844 214.109375 406.304688 L 215.152344 403.34375 L 214.0625 403.320312 C 213.8125 403.316406 213.621094 403.097656 213.644531 402.847656 C 213.742188 401.914062 213.957031 399.808594 214.058594 398.796875 C 214.089844 398.46875 214.367188 398.21875 214.695312 398.21875 Z M 214.695312 398.21875"/><path fill="#FFF" d="M 89.199219 331.523438 L 91.34375 331.523438 C 91.683594 331.523438 91.925781 331.855469 91.824219 332.179688 L 90.960938 334.953125 L 92.417969 334.964844 C 92.796875 334.96875 93.007812 335.414062 92.765625 335.710938 L 89.066406 340.289062 C 88.867188 340.535156 88.480469 340.316406 88.582031 340.019531 L 89.675781 336.910156 L 88.535156 336.886719 C 88.269531 336.878906 88.066406 336.652344 88.09375 336.386719 C 88.195312 335.40625 88.421875 333.191406 88.527344 332.132812 C 88.5625 331.785156 88.851562 331.523438 89.199219 331.523438 Z M 89.199219 331.523438"/><path fill="#FFF" d="M 182.015625 371.335938 L 184.613281 371.335938 C 185.023438 371.335938 185.316406 371.738281 185.195312 372.128906 L 184.152344 375.488281 L 185.914062 375.507812 C 186.375 375.511719 186.628906 376.046875 186.335938 376.40625 L 181.855469 381.957031 C 181.613281 382.253906 181.144531 381.988281 181.269531 381.628906 L 182.59375 377.863281 L 181.210938 377.832031 C 180.890625 377.824219 180.644531 377.546875 180.675781 377.230469 C 180.800781 376.039062 181.074219 373.359375 181.203125 372.070312 C 181.246094 371.65625 181.59375 371.335938 182.015625 371.335938 Z M 182.015625 371.335938"/><path fill="#FFF" d="M 264.363281 313.601562 L 268.347656 313.601562 C 268.980469 313.601562 269.433594 314.214844 269.246094 314.820312 L 267.644531 319.976562 L 270.347656 320.003906 C 271.054688 320.007812 271.445312 320.832031 270.996094 321.382812 L 264.117188 329.902344 C 263.75 330.355469 263.023438 329.953125 263.21875 329.402344 L 265.253906 323.617188 L 263.125 323.570312 C 262.636719 323.5625 262.257812 323.132812 262.308594 322.648438 C 262.496094 320.820312 262.921875 316.703125 263.117188 314.730469 C 263.179688 314.089844 263.71875 313.601562 264.363281 313.601562 Z M 264.363281 313.601562"/><path fill="#FFF" d="M 250.828125 375.796875 L 255.460938 375.796875 C 256.195312 375.796875 256.71875 376.511719 256.5 377.210938 L 254.640625 383.203125 L 257.78125 383.234375 C 258.605469 383.242188 259.054688 384.195312 258.535156 384.835938 L 250.542969 394.730469 C 250.117188 395.257812 249.277344 394.789062 249.5 394.148438 L 251.863281 387.429688 L 249.394531 387.378906 C 248.824219 387.367188 248.386719 386.871094 248.445312 386.304688 C 248.664062 384.183594 249.15625 379.402344 249.382812 377.109375 C 249.457031 376.363281 250.082031 375.796875 250.828125 375.796875 Z M 250.828125 375.796875"/><path fill="#FFF" d="M 150.128906 310.707031 L 152.277344 310.707031 C 152.617188 310.707031 152.859375 311.035156 152.757812 311.359375 L 151.894531 314.136719 L 153.351562 314.148438 C 153.730469 314.152344 153.941406 314.597656 153.699219 314.894531 L 149.996094 319.476562 C 149.800781 319.722656 149.410156 319.503906 149.515625 319.207031 L 150.609375 316.09375 L 149.464844 316.070312 C 149.203125 316.0625 149 315.835938 149.027344 315.574219 C 149.125 314.589844 149.355469 312.375 149.460938 311.3125 C 149.496094 310.96875 149.785156 310.707031 150.128906 310.707031 Z M 150.128906 310.707031"/><path fill="#FFF" d="M 139.855469 356.660156 L 144.222656 356.660156 C 144.914062 356.660156 145.410156 357.332031 145.203125 357.992188 L 143.449219 363.644531 L 146.410156 363.671875 C 147.1875 363.679688 147.613281 364.582031 147.125 365.183594 L 139.585938 374.515625 C 139.183594 375.015625 138.390625 374.574219 138.601562 373.96875 L 140.832031 367.628906 L 138.5 367.582031 C 137.964844 367.570312 137.550781 367.101562 137.605469 366.566406 C 137.8125 364.570312 138.277344 360.058594 138.492188 357.894531 C 138.558594 357.195312 139.148438 356.660156 139.855469 356.660156 Z M 139.855469 356.660156"/><path fill="#FFF" d="M 254.246094 419.84375 L 256.347656 419.84375 C 256.683594 419.84375 256.921875 420.164062 256.820312 420.484375 L 255.976562 423.203125 L 257.402344 423.21875 C 257.777344 423.21875 257.980469 423.65625 257.746094 423.945312 L 254.117188 428.4375 C 253.921875 428.675781 253.542969 428.464844 253.644531 428.171875 L 254.714844 425.121094 L 253.59375 425.097656 C 253.335938 425.09375 253.140625 424.867188 253.164062 424.609375 C 253.265625 423.648438 253.488281 421.476562 253.589844 420.4375 C 253.625 420.097656 253.90625 419.84375 254.246094 419.84375 Z M 254.246094 419.84375"/><path fill="#FFF" d="M 179.699219 275.164062 L 186.53125 275.164062 C 187.613281 275.164062 188.386719 276.214844 188.066406 277.25 L 185.320312 286.089844 L 189.953125 286.132812 C 191.167969 286.144531 191.832031 287.554688 191.070312 288.5 L 179.277344 303.097656 C 178.644531 303.875 177.40625 303.183594 177.738281 302.238281 L 181.222656 292.324219 L 177.582031 292.246094 C 176.742188 292.230469 176.097656 291.5 176.183594 290.664062 C 176.503906 287.535156 177.230469 280.480469 177.566406 277.097656 C 177.671875 276 178.597656 275.164062 179.699219 275.164062 Z M 179.699219 275.164062"/><path fill="#FFF" d="M 244.714844 357.089844 L 247.828125 357.089844 C 248.320312 357.089844 248.671875 357.566406 248.527344 358.039062 L 247.277344 362.066406 L 249.386719 362.085938 C 249.941406 362.089844 250.242188 362.730469 249.894531 363.164062 L 244.523438 369.8125 C 244.238281 370.167969 243.671875 369.851562 243.824219 369.421875 L 245.410156 364.90625 L 243.75 364.871094 C 243.367188 364.863281 243.074219 364.527344 243.113281 364.148438 C 243.261719 362.722656 243.589844 359.511719 243.742188 357.96875 C 243.792969 357.46875 244.214844 357.089844 244.714844 357.089844 Z M 244.714844 357.089844"/><path fill="#FFF" d="M 219.339844 416.230469 L 223.40625 416.230469 C 224.054688 416.230469 224.511719 416.855469 224.320312 417.472656 L 222.6875 422.734375 L 225.445312 422.761719 C 226.167969 422.769531 226.566406 423.609375 226.109375 424.171875 L 219.085938 432.863281 C 218.710938 433.328125 217.972656 432.917969 218.171875 432.355469 L 220.246094 426.449219 L 218.078125 426.402344 C 217.578125 426.394531 217.191406 425.957031 217.246094 425.460938 C 217.4375 423.597656 217.867188 419.394531 218.066406 417.378906 C 218.132812 416.726562 218.683594 416.230469 219.339844 416.230469 Z M 219.339844 416.230469"/><path fill="#FFF" d="M 99.800781 310.320312 L 102.945312 310.320312 C 103.441406 310.320312 103.796875 310.800781 103.648438 311.277344 L 102.386719 315.34375 L 104.519531 315.363281 C 105.078125 315.367188 105.382812 316.015625 105.03125 316.449219 L 99.609375 323.164062 C 99.320312 323.523438 98.75 323.203125 98.902344 322.769531 L 100.503906 318.210938 L 98.828125 318.175781 C 98.441406 318.167969 98.144531 317.832031 98.183594 317.445312 C 98.332031 316.007812 98.667969 312.761719 98.820312 311.207031 C 98.871094 310.703125 99.292969 310.320312 99.800781 310.320312 Z M 99.800781 310.320312"/><path fill="#FFF" d="M 238.121094 423.492188 L 240.449219 423.492188 C 240.820312 423.492188 241.085938 423.851562 240.976562 424.203125 L 240.039062 427.21875 L 241.617188 427.234375 C 242.035156 427.238281 242.261719 427.71875 242 428.042969 L 237.976562 433.023438 C 237.761719 433.289062 237.339844 433.054688 237.453125 432.730469 L 238.640625 429.347656 L 237.398438 429.320312 C 237.109375 429.316406 236.890625 429.066406 236.921875 428.78125 C 237.03125 427.714844 237.277344 425.304688 237.390625 424.152344 C 237.429688 423.777344 237.742188 423.492188 238.121094 423.492188 Z M 238.121094 423.492188"/><path fill="#FFF" d="M 161.558594 366.730469 L 163.933594 366.730469 C 164.3125 366.730469 164.582031 367.097656 164.46875 367.457031 L 163.515625 370.527344 L 165.125 370.542969 C 165.546875 370.546875 165.777344 371.039062 165.511719 371.367188 L 161.414062 376.441406 C 161.195312 376.714844 160.761719 376.472656 160.878906 376.144531 L 162.089844 372.699219 L 160.824219 372.671875 C 160.53125 372.664062 160.308594 372.410156 160.335938 372.121094 C 160.449219 371.03125 160.703125 368.578125 160.816406 367.402344 C 160.855469 367.023438 161.175781 366.730469 161.558594 366.730469 Z M 161.558594 366.730469"/><path fill="#FFF" d="M 226.355469 370.65625 L 231.515625 370.65625 C 232.332031 370.65625 232.917969 371.449219 232.675781 372.230469 L 230.601562 378.902344 L 234.097656 378.9375 C 235.015625 378.945312 235.519531 380.007812 234.941406 380.722656 L 226.039062 391.742188 C 225.5625 392.332031 224.625 391.808594 224.878906 391.09375 L 227.507812 383.609375 L 224.757812 383.550781 C 224.125 383.539062 223.636719 382.988281 223.703125 382.355469 C 223.945312 379.996094 224.492188 374.667969 224.746094 372.113281 C 224.828125 371.285156 225.523438 370.65625 226.355469 370.65625 Z M 226.355469 370.65625"/><path fill="#FFF" d="M 199.777344 410.507812 L 203.070312 410.507812 C 203.59375 410.507812 203.964844 411.015625 203.8125 411.515625 L 202.488281 415.777344 L 204.722656 415.796875 C 205.308594 415.804688 205.628906 416.484375 205.257812 416.9375 L 199.574219 423.976562 C 199.269531 424.351562 198.671875 424.019531 198.832031 423.5625 L 200.511719 418.785156 L 198.753906 418.746094 C 198.351562 418.738281 198.039062 418.386719 198.082031 417.980469 C 198.234375 416.472656 198.585938 413.074219 198.746094 411.441406 C 198.800781 410.914062 199.246094 410.507812 199.777344 410.507812 Z M 199.777344 410.507812"/><path fill="#FFF" d="M 153.148438 330.207031 L 159.289062 330.207031 C 160.261719 330.207031 160.957031 331.152344 160.667969 332.082031 L 158.199219 340.019531 L 162.363281 340.0625 C 163.453125 340.070312 164.050781 341.335938 163.367188 342.1875 L 152.773438 355.300781 C 152.207031 356 151.09375 355.378906 151.390625 354.53125 L 154.523438 345.625 L 151.25 345.554688 C 150.492188 345.539062 149.914062 344.882812 149.992188 344.132812 C 150.28125 341.320312 150.933594 334.980469 151.234375 331.941406 C 151.332031 330.957031 152.160156 330.207031 153.148438 330.207031 Z M 153.148438 330.207031"/><path fill="#FFF" d="M 193.414062 356.089844 L 195.96875 356.089844 C 196.371094 356.089844 196.660156 356.480469 196.542969 356.867188 L 195.515625 360.171875 L 197.246094 360.1875 C 197.699219 360.191406 197.949219 360.71875 197.664062 361.074219 L 193.257812 366.527344 C 193.019531 366.820312 192.558594 366.558594 192.683594 366.207031 L 193.984375 362.503906 L 192.621094 362.472656 C 192.308594 362.464844 192.066406 362.191406 192.101562 361.882812 C 192.21875 360.710938 192.492188 358.074219 192.617188 356.8125 C 192.65625 356.402344 193.003906 356.089844 193.414062 356.089844 Z M 193.414062 356.089844"/><path fill="#FFF" d="M 221.890625 336.136719 L 227.304688 336.136719 C 228.164062 336.136719 228.773438 336.96875 228.519531 337.789062 L 226.34375 344.789062 L 230.015625 344.824219 C 230.976562 344.832031 231.503906 345.949219 230.898438 346.699219 L 221.558594 358.261719 C 221.058594 358.878906 220.078125 358.332031 220.339844 357.582031 L 223.101562 349.730469 L 220.214844 349.667969 C 219.550781 349.652344 219.039062 349.074219 219.105469 348.414062 C 219.363281 345.933594 219.9375 340.347656 220.203125 337.667969 C 220.289062 336.796875 221.019531 336.136719 221.890625 336.136719 Z M 221.890625 336.136719"/><path fill="#FFF" d="M 97.933594 352.175781 L 100.273438 352.175781 C 100.644531 352.175781 100.90625 352.535156 100.796875 352.886719 L 99.859375 355.910156 L 101.441406 355.925781 C 101.859375 355.929688 102.085938 356.414062 101.824219 356.734375 L 97.792969 361.726562 C 97.574219 361.996094 97.152344 361.757812 97.265625 361.433594 L 98.457031 358.042969 L 97.210938 358.019531 C 96.925781 358.011719 96.703125 357.761719 96.734375 357.476562 C 96.84375 356.40625 97.089844 353.992188 97.207031 352.835938 C 97.242188 352.460938 97.558594 352.175781 97.933594 352.175781 Z M 97.933594 352.175781"/><path fill="#FFF" d="M 176.296875 333.726562 L 182.566406 333.726562 C 183.5625 333.726562 184.273438 334.691406 183.976562 335.640625 L 181.457031 343.753906 L 185.710938 343.792969 C 186.824219 343.804688 187.433594 345.097656 186.734375 345.964844 L 175.910156 359.367188 C 175.328125 360.082031 174.191406 359.445312 174.496094 358.578125 L 177.695312 349.476562 L 174.351562 349.40625 C 173.582031 349.390625 172.988281 348.71875 173.066406 347.953125 C 173.363281 345.082031 174.027344 338.605469 174.335938 335.5 C 174.4375 334.492188 175.285156 333.726562 176.296875 333.726562 Z M 176.296875 333.726562"/><path fill="#FFF" d="M 272.082031 371.679688 L 274.367188 371.679688 C 274.730469 371.679688 274.988281 372.03125 274.882812 372.375 L 273.964844 375.332031 L 275.511719 375.347656 C 275.917969 375.351562 276.140625 375.824219 275.886719 376.136719 L 271.941406 381.019531 C 271.730469 381.28125 271.316406 381.050781 271.429688 380.734375 L 272.59375 377.417969 L 271.375 377.390625 C 271.09375 377.386719 270.878906 377.140625 270.90625 376.863281 C 271.015625 375.816406 271.257812 373.457031 271.371094 372.324219 C 271.40625 371.957031 271.714844 371.679688 272.082031 371.679688 Z M 272.082031 371.679688"/><path fill="#FFF" d="M 206.960938 280.40625 L 212.757812 280.40625 C 213.679688 280.40625 214.335938 281.296875 214.0625 282.175781 L 211.730469 289.675781 L 215.664062 289.714844 C 216.695312 289.726562 217.257812 290.921875 216.609375 291.722656 L 206.605469 304.109375 C 206.070312 304.769531 205.015625 304.183594 205.300781 303.382812 L 208.257812 294.96875 L 205.164062 294.902344 C 204.453125 294.886719 203.90625 294.269531 203.976562 293.558594 C 204.25 290.90625 204.867188 284.917969 205.152344 282.046875 C 205.242188 281.117188 206.027344 280.40625 206.960938 280.40625 Z M 206.960938 280.40625"/><path fill="#FFF" d="M 108.238281 333.746094 L 110.5 333.746094 C 110.859375 333.746094 111.117188 334.09375 111.011719 334.4375 L 110.101562 337.367188 L 111.636719 337.382812 C 112.039062 337.386719 112.257812 337.851562 112.003906 338.164062 L 108.097656 343.003906 C 107.890625 343.261719 107.476562 343.03125 107.589844 342.71875 L 108.742188 339.433594 L 107.535156 339.40625 C 107.257812 339.402344 107.042969 339.160156 107.074219 338.882812 C 107.179688 337.847656 107.417969 335.507812 107.53125 334.386719 C 107.566406 334.023438 107.871094 333.746094 108.238281 333.746094 Z M 108.238281 333.746094"/><path fill="#FFF" d="M 200.75 384.171875 L 203.683594 384.171875 C 204.148438 384.171875 204.476562 384.625 204.339844 385.066406 L 203.164062 388.859375 L 205.148438 388.878906 C 205.671875 388.882812 205.957031 389.488281 205.628906 389.890625 L 200.570312 396.152344 C 200.300781 396.488281 199.769531 396.191406 199.910156 395.785156 L 201.40625 391.53125 L 199.84375 391.5 C 199.484375 391.492188 199.207031 391.179688 199.242188 390.820312 C 199.382812 389.480469 199.691406 386.453125 199.835938 385.003906 C 199.882812 384.53125 200.277344 384.171875 200.75 384.171875 Z M 200.75 384.171875"/><path fill="#FFF" d="M 208.121094 360.382812 L 212.636719 360.382812 C 213.355469 360.382812 213.863281 361.078125 213.652344 361.761719 L 211.835938 367.601562 L 214.898438 367.632812 C 215.703125 367.640625 216.140625 368.570312 215.636719 369.195312 L 207.84375 378.84375 C 207.425781 379.359375 206.605469 378.902344 206.828125 378.277344 L 209.128906 371.722656 L 206.722656 371.671875 C 206.167969 371.660156 205.742188 371.179688 205.796875 370.625 C 206.011719 368.558594 206.488281 363.894531 206.710938 361.660156 C 206.785156 360.933594 207.394531 360.382812 208.121094 360.382812 Z M 208.121094 360.382812"/><path fill="#FFF" d="M 186.839844 306.613281 L 191.015625 306.613281 C 191.675781 306.613281 192.148438 307.253906 191.953125 307.886719 L 190.273438 313.289062 L 193.105469 313.316406 C 193.847656 313.324219 194.253906 314.183594 193.789062 314.761719 L 186.582031 323.683594 C 186.195312 324.160156 185.4375 323.734375 185.640625 323.15625 L 187.769531 317.101562 L 185.542969 317.050781 C 185.03125 317.042969 184.636719 316.59375 184.691406 316.085938 C 184.886719 314.171875 185.328125 309.859375 185.535156 307.792969 C 185.601562 307.121094 186.164062 306.613281 186.839844 306.613281 Z M 186.839844 306.613281"/><path fill="#FFF" d="M 249.097656 302.070312 L 253.445312 302.070312 C 254.132812 302.070312 254.625 302.738281 254.421875 303.398438 L 252.675781 309.015625 L 255.621094 309.046875 C 256.390625 309.050781 256.816406 309.949219 256.328125 310.550781 L 248.832031 319.832031 C 248.429688 320.328125 247.640625 319.886719 247.855469 319.285156 L 250.070312 312.984375 L 247.753906 312.933594 C 247.21875 312.921875 246.808594 312.457031 246.863281 311.925781 C 247.066406 309.9375 247.527344 305.449219 247.742188 303.300781 C 247.8125 302.601562 248.398438 302.070312 249.097656 302.070312 Z M 249.097656 302.070312"/><path fill="#FFF" d="M 115.054688 295.976562 L 117.527344 295.976562 C 117.921875 295.976562 118.199219 296.355469 118.082031 296.730469 L 117.089844 299.929688 L 118.765625 299.945312 C 119.207031 299.949219 119.445312 300.460938 119.171875 300.800781 L 114.902344 306.082031 C 114.675781 306.363281 114.226562 306.113281 114.347656 305.773438 L 115.609375 302.1875 L 114.289062 302.15625 C 113.984375 302.152344 113.753906 301.886719 113.785156 301.585938 C 113.902344 300.453125 114.164062 297.898438 114.285156 296.675781 C 114.324219 296.277344 114.65625 295.976562 115.054688 295.976562 Z M 115.054688 295.976562"/><path fill="#FFF" d="M 166.699219 308.089844 L 169.207031 308.089844 C 169.605469 308.089844 169.886719 308.472656 169.769531 308.855469 L 168.761719 312.097656 L 170.464844 312.113281 C 170.910156 312.117188 171.152344 312.636719 170.871094 312.984375 L 166.542969 318.339844 C 166.3125 318.625 165.859375 318.371094 165.980469 318.023438 L 167.257812 314.386719 L 165.921875 314.359375 C 165.613281 314.351562 165.378906 314.082031 165.410156 313.777344 C 165.527344 312.628906 165.792969 310.039062 165.917969 308.796875 C 165.957031 308.394531 166.296875 308.089844 166.699219 308.089844 Z M 166.699219 308.089844"/><g fill="#EA4335"><g><g><path d="M 49.109375 -10.53125 L 3.515625 -33.328125 L 3.515625 -40.34375 L 49.109375 -63.140625 L 52.625 -56.125 L 52.625 -54.375 L 17.546875 -36.828125 L 52.625 -19.296875 L 52.625 -17.546875 Z M 49.109375 -10.53125" transform="translate(95.216 380.544)"/></g></g></g><g fill="#FBBC05"><g><g><path d="M 0 14.03125 L -7.015625 10.53125 L 47.359375 -98.21875 L 49.109375 -98.21875 L 56.125 -94.71875 L 1.75 14.03125 Z M 0 14.03125" transform="translate(165.376 380.544)"/></g></g></g><g fill="#4285F4"><g><g><path d="M 3.515625 -10.53125 L 0 -17.546875 L 0 -19.296875 L 35.078125 -36.828125 L 0 -54.375 L 0 -56.125 L 3.515625 -63.140625 L 49.109375 -40.34375 L 49.109375 -33.328125 Z M 3.515625 -10.53125" transform="translate(235.537 380.544)"/></g></g></g><g fill="#FFF"><g><g><path d="M 5.859375 0 L 5.859375 -54.25 L 20.515625 -54.25 L 20.515625 -11.84375 L 41.421875 -11.84375 L 41.421875 0 Z M 5.859375 0" transform="translate(335.92 479.15)"/></g></g></g><g fill="#FFF"><g><g><path d="M 5.859375 0 L 5.859375 -54.25 L 20.59375 -54.25 L 20.59375 0 Z M 5.859375 0" transform="translate(380.151 479.15)"/></g></g></g><g fill="#FFF"><g><g><path d="M 45.234375 -37 C 45.234375 -30.9375 43.445312 -26.253906 39.875 -22.953125 C 36.300781 -19.648438 31.222656 -18 24.640625 -18 L 20.515625 -18 L 20.515625 0 L 5.859375 0 L 5.859375 -54.25 L 24.640625 -54.25 C 31.492188 -54.25 36.640625 -52.753906 40.078125 -49.765625 C 43.515625 -46.773438 45.234375 -42.519531 45.234375 -37 Z M 20.515625 -29.953125 L 23.1875 -29.953125 C 25.394531 -29.953125 27.144531 -30.566406 28.4375 -31.796875 C 29.738281 -33.035156 30.390625 -34.742188 30.390625 -36.921875 C 30.390625 -40.585938 28.363281 -42.421875 24.3125 -42.421875 L 20.515625 -42.421875 Z M 20.515625 -29.953125" transform="translate(406.609 479.15)"/></g></g></g><g fill="#FFF"><g><g><path d="M 20.515625 -19.75 L 20.515625 0 L 5.859375 0 L 5.859375 -54.25 L 23.640625 -54.25 C 38.378906 -54.25 45.75 -48.90625 45.75 -38.21875 C 45.75 -31.9375 42.679688 -27.078125 36.546875 -23.640625 L 52.359375 0 L 35.734375 0 L 24.234375 -19.75 Z M 20.515625 -30.765625 L 23.265625 -30.765625 C 28.390625 -30.765625 30.953125 -33.03125 30.953125 -37.5625 C 30.953125 -41.289062 28.441406 -43.15625 23.421875 -43.15625 L 20.515625 -43.15625 Z M 20.515625 -30.765625" transform="translate(454.626 479.15)"/></g></g></g><g fill="#FFF"><g><g><path d="M 56.625 -27.203125 C 56.625 -18.078125 54.382812 -11.132812 49.90625 -6.375 C 45.4375 -1.625 38.882812 0.75 30.25 0.75 C 21.738281 0.75 15.210938 -1.632812 10.671875 -6.40625 C 6.128906 -11.1875 3.859375 -18.144531 3.859375 -27.28125 C 3.859375 -36.3125 6.113281 -43.207031 10.625 -47.96875 C 15.144531 -52.726562 21.707031 -55.109375 30.3125 -55.109375 C 38.945312 -55.109375 45.488281 -52.742188 49.9375 -48.015625 C 54.394531 -43.296875 56.625 -36.359375 56.625 -27.203125 Z M 19.296875 -27.203125 C 19.296875 -16.710938 22.945312 -11.46875 30.25 -11.46875 C 33.957031 -11.46875 36.707031 -12.738281 38.5 -15.28125 C 40.289062 -17.832031 41.1875 -21.804688 41.1875 -27.203125 C 41.1875 -32.617188 40.273438 -36.617188 38.453125 -39.203125 C 36.640625 -41.785156 33.925781 -43.078125 30.3125 -43.078125 C 22.96875 -43.078125 19.296875 -37.785156 19.296875 -27.203125 Z M 19.296875 -27.203125" transform="translate(506.057 479.15)"/></g></g></g><g fill="#FFF"><g><g><path d="M 30.015625 -43.015625 C 26.535156 -43.015625 23.816406 -41.582031 21.859375 -38.71875 C 19.898438 -35.863281 18.921875 -31.925781 18.921875 -26.90625 C 18.921875 -16.46875 22.894531 -11.25 30.84375 -11.25 C 33.238281 -11.25 35.5625 -11.582031 37.8125 -12.25 C 40.0625 -12.914062 42.328125 -13.71875 44.609375 -14.65625 L 44.609375 -2.265625 C 40.078125 -0.253906 34.957031 0.75 29.25 0.75 C 21.050781 0.75 14.769531 -1.625 10.40625 -6.375 C 6.039062 -11.132812 3.859375 -18.003906 3.859375 -26.984375 C 3.859375 -32.597656 4.914062 -37.53125 7.03125 -41.78125 C 9.144531 -46.039062 12.1875 -49.3125 16.15625 -51.59375 C 20.132812 -53.882812 24.804688 -55.03125 30.171875 -55.03125 C 36.035156 -55.03125 41.640625 -53.757812 46.984375 -51.21875 L 42.484375 -39.671875 C 40.484375 -40.609375 38.476562 -41.398438 36.46875 -42.046875 C 34.46875 -42.691406 32.316406 -43.015625 30.015625 -43.015625 Z M 30.015625 -43.015625" transform="translate(566.616 479.15)"/></g></g></g><g fill="#FFF"><g><g><path d="M 56.625 -27.203125 C 56.625 -18.078125 54.382812 -11.132812 49.90625 -6.375 C 45.4375 -1.625 38.882812 0.75 30.25 0.75 C 21.738281 0.75 15.210938 -1.632812 10.671875 -6.40625 C 6.128906 -11.1875 3.859375 -18.144531 3.859375 -27.28125 C 3.859375 -36.3125 6.113281 -43.207031 10.625 -47.96875 C 15.144531 -52.726562 21.707031 -55.109375 30.3125 -55.109375 C 38.945312 -55.109375 45.488281 -52.742188 49.9375 -48.015625 C 54.394531 -43.296875 56.625 -36.359375 56.625 -27.203125 Z M 19.296875 -27.203125 C 19.296875 -16.710938 22.945312 -11.46875 30.25 -11.46875 C 33.957031 -11.46875 36.707031 -12.738281 38.5 -15.28125 C 40.289062 -17.832031 41.1875 -21.804688 41.1875 -27.203125 C 41.1875 -32.617188 40.273438 -36.617188 38.453125 -39.203125 C 36.640625 -41.785156 33.925781 -43.078125 30.3125 -43.078125 C 22.96875 -43.078125 19.296875 -37.785156 19.296875 -27.203125 Z M 19.296875 -27.203125" transform="translate(615.932 479.15)"/></g></g></g><g fill="#FFF"><g><g><path d="M 29.5 0 L 18.40625 -39.078125 L 18.078125 -39.078125 C 18.597656 -32.421875 18.859375 -27.25 18.859375 -23.5625 L 18.859375 0 L 5.859375 0 L 5.859375 -54.25 L 25.390625 -54.25 L 36.703125 -15.734375 L 37 -15.734375 L 48.09375 -54.25 L 67.65625 -54.25 L 67.65625 0 L 54.1875 0 L 54.1875 -23.78125 C 54.1875 -25.019531 54.203125 -26.394531 54.234375 -27.90625 C 54.273438 -29.414062 54.441406 -33.113281 54.734375 -39 L 54.40625 -39 L 43.453125 0 Z M 29.5 0" transform="translate(676.491 479.15)"/></g></g></g><g fill="#FFF"><g><g><path d="M 45.234375 -37 C 45.234375 -30.9375 43.445312 -26.253906 39.875 -22.953125 C 36.300781 -19.648438 31.222656 -18 24.640625 -18 L 20.515625 -18 L 20.515625 0 L 5.859375 0 L 5.859375 -54.25 L 24.640625 -54.25 C 31.492188 -54.25 36.640625 -52.753906 40.078125 -49.765625 C 43.515625 -46.773438 45.234375 -42.519531 45.234375 -37 Z M 20.515625 -29.953125 L 23.1875 -29.953125 C 25.394531 -29.953125 27.144531 -30.566406 28.4375 -31.796875 C 29.738281 -33.035156 30.390625 -34.742188 30.390625 -36.921875 C 30.390625 -40.585938 28.363281 -42.421875 24.3125 -42.421875 L 20.515625 -42.421875 Z M 20.515625 -29.953125" transform="translate(749.964 479.15)"/></g></g></g></svg>