<svg xmlns="http://www.w3.org/2000/svg" width="810" viewBox="0 0 810 810" height="810" version="1.0"><defs><clipPath id="a"><path d="M 520 614 L 586 614 L 586 677.183594 L 520 677.183594 Z M 520 614"/></clipPath><clipPath id="b"><path d="M 532 647 L 565 647 L 565 677.183594 L 532 677.183594 Z M 532 647"/></clipPath></defs><path transform="matrix(.00485 -.29044 .2902 .00485 115.75 826.77)" fill="#EA4335" d="M 918.393539 1125.59435 L 1059.789477 1125.601406 L 1059.784524 1235.61125 L 918.388586 1235.604194 Z M 918.393539 1125.59435" stroke="#000" stroke-width="7.83"/><path transform="matrix(.00458 -.29044 .29021 .00459 79.667 861.647)" fill="#FFF" d="M 902.776661 1233.802478 L 1071.122905 1233.794803 L 1071.125687 1373.603213 L 902.765997 1373.611101 Z M 902.776661 1233.802478" stroke="#000" stroke-width="7.83"/><path transform="matrix(.00357 -.29045 .29023 .00357 136.115 825.464)" fill="#FFF" d="M 1008.404065 1132.594503 L 1025.995027 1132.593391 L 1025.993429 1152.136292 L 1008.402467 1152.137404 Z M 1008.404065 1132.594503" stroke="#000" stroke-width="7.83"/><path transform="matrix(.00357 -.29045 .29023 .00357 121.675 809.779)" fill="#FFF" d="M 956.124251 1130.701031 L 973.72866 1130.699754 L 973.726896 1150.229198 L 956.135934 1150.23031 Z M 956.124251 1130.701031" stroke="#000" stroke-width="7.83"/><path fill="#FFF" d="M 219.582031 474.71875 C 219.582031 474.722656 219.582031 474.71875 219.582031 474.71875 C 219.574219 474.722656 219.585938 474.71875 219.578125 474.722656 C 219.582031 474.722656 219.578125 474.722656 219.578125 474.722656 C 219.578125 474.722656 219.582031 474.722656 219.582031 474.722656 C 219.582031 474.722656 219.582031 474.722656 219.582031 474.71875 Z M 219.582031 474.71875"/><path fill="#FFF" d="M 519.640625 236.277344 C 487.046875 219.253906 443.417969 211.535156 414.054688 212.019531 C 367.125 212.101562 323.015625 223.523438 287.460938 253.898438 C 257.976562 278.996094 234.148438 324.714844 239.820312 357.957031 C 240.507812 361.921875 241.695312 364.800781 241.253906 367.300781 C 209.492188 410.554688 175.464844 439.953125 187.25 458.175781 C 190.558594 463.320312 196.210938 466.128906 201.441406 468.8125 C 206.140625 471.242188 203.988281 470.472656 206.132812 471.121094 C 211.46875 472.714844 215.523438 472.054688 218.835938 474.027344 C 219 474.125 219.59375 474.722656 219.578125 474.722656 C 219.574219 474.71875 219.585938 474.734375 219.582031 474.773438 C 219.980469 476.398438 216.933594 482.332031 216.71875 485.753906 C 216.546875 490.859375 204.417969 497.003906 210.648438 508.652344 C 212.503906 512.171875 215.824219 514.53125 218.792969 516.722656 C 216.882812 518.761719 215.570312 520.027344 214.222656 521.792969 C 210.304688 526.9375 210.832031 531.632812 213.640625 534.898438 C 217.808594 539.667969 222.765625 544.558594 223.664062 549.308594 C 224.136719 551.800781 223.828125 552.511719 219.300781 565.597656 C 215.511719 576.789062 212.96875 586.691406 218.285156 596.324219 C 218.875 597.382812 221.0625 600.554688 221.761719 601.339844 C 238.480469 620.996094 263.09375 619.9375 287.816406 618.890625 C 301.550781 618.207031 315.121094 616.324219 320.199219 626.039062 C 321.125 627.800781 321.765625 629.746094 322.28125 631.648438 C 324.078125 638.625 326.011719 645.398438 326.605469 650.699219 C 327.421875 657.023438 326.265625 661.996094 329.308594 667.5625 C 333.011719 673.5625 339.195312 675.84375 346.1875 676.617188 C 351.292969 677.089844 449.777344 676.246094 450.066406 676.234375 C 457.753906 675.820312 462.957031 670.992188 464.972656 665.195312 C 466.105469 662.234375 465.78125 663.972656 466.804688 606.675781 L 457.332031 606.503906 C 457.328125 606.621094 456.378906 660.003906 456.367188 660.117188 C 456.007812 664.121094 453.347656 666.390625 450.195312 666.742188 C 446.828125 666.804688 466.433594 666.667969 355.097656 667.382812 C 348.25 667.425781 342.414062 667.527344 338.207031 663.761719 C 336.207031 662.03125 336.566406 656.785156 336.304688 652.683594 C 335.691406 643.585938 330.929688 627.410156 330.660156 626.601562 C 322.550781 601.953125 298.09375 610.238281 268.605469 609.910156 C 251.3125 609.667969 235.957031 606.214844 226.597656 591.773438 C 221.230469 583.460938 228.710938 568.835938 232.277344 556.71875 C 235.886719 544.582031 228.46875 537.460938 220.941406 528.855469 C 222.492188 525 233.949219 518.671875 227.265625 511.386719 C 224.992188 508.953125 217.351562 505.367188 218.488281 501.390625 C 219.394531 498.257812 225.011719 494.296875 226.042969 487.570312 C 226.257812 485.875 226.097656 486.597656 226.265625 485.921875 C 227.425781 481.554688 232.226562 473.316406 225.71875 467.449219 C 221.34375 463.6875 217.636719 463.515625 212.425781 462.761719 C 209.953125 462.410156 208.832031 462.035156 208.832031 462.035156 C 207.886719 461.472656 206.460938 460.738281 205.769531 460.378906 C 196.011719 455.378906 192.941406 453.292969 195.105469 446.09375 C 199.175781 432.3125 217.671875 413.613281 243.339844 380.117188 C 244.636719 378.503906 246.519531 376.53125 248.066406 374.351562 C 252.910156 367.460938 250.160156 362.25 249.15625 356.351562 C 242.695312 319.230469 282.394531 221.75 412.605469 221.503906 C 547.6875 221.238281 634.453125 319.367188 580.699219 458.332031 C 571.128906 483.082031 546.488281 503.210938 537.117188 536.269531 C 533.84375 548.21875 537.269531 577.222656 538.8125 590.246094 L 548.214844 589.085938 C 547.082031 579.535156 543.5625 548.992188 546.054688 539.628906 C 550.839844 517.558594 572.917969 492.488281 582.082031 476.648438 C 587.445312 467.589844 588.691406 463.929688 591.0625 457.792969 C 625.152344 366.78125 602.1875 279.542969 519.640625 236.277344 Z M 519.640625 236.277344"/><path fill="#EA4335" d="M 533.746094 632.699219 C 533.746094 632.699219 534.1875 635.265625 534.84375 639.117188 C 535.503906 642.964844 536.425781 648.089844 537.378906 653.214844 C 538.328125 658.335938 539.335938 663.457031 540.109375 667.300781 C 540.5 669.226562 540.828125 670.828125 541.058594 671.949219 C 541.292969 673.070312 541.425781 673.710938 541.425781 673.710938 L 572.675781 667.144531 C 572.675781 667.144531 572.546875 666.527344 572.320312 665.449219 C 572.101562 664.371094 571.785156 662.828125 571.40625 660.980469 C 570.660156 657.273438 569.6875 652.320312 568.765625 647.347656 C 567.839844 642.375 566.945312 637.394531 566.304688 633.65625 C 565.664062 629.914062 565.238281 627.421875 565.238281 627.421875 Z M 533.746094 632.699219"/><g clip-path="url(#a)"><path transform="matrix(.29025 0 0 .29048 176.074 202.3)" fill="none" d="M 1232.293333 1481.701182 C 1232.293333 1481.701182 1233.814117 1490.536347 1236.075105 1503.795818 C 1238.349552 1517.041841 1241.525703 1534.685276 1244.80952 1552.32871 C 1248.079879 1569.958696 1251.552111 1587.588683 1254.216848 1600.821259 C 1255.562674 1607.450994 1256.693169 1612.964568 1257.487206 1616.824069 C 1258.294702 1620.68357 1258.752283 1622.888999 1258.752283 1622.888999 L 1366.41841 1600.283349 C 1366.41841 1600.283349 1365.974287 1598.158606 1365.193708 1594.44703 C 1364.440045 1590.735454 1363.349926 1585.423597 1362.044474 1579.062816 C 1359.473945 1566.300911 1356.122837 1549.249178 1352.946686 1532.130205 C 1349.757077 1515.011233 1346.675134 1497.865365 1344.467979 1484.995878 C 1342.260823 1472.112943 1340.793872 1463.533285 1340.793872 1463.533285 Z M 1232.293333 1481.701182" stroke="#000" stroke-width="7.83"/></g><path transform="matrix(.29025 0 0 .29048 176.074 202.3)" fill="#FFF" d="M 1197.301841 1346.000041 C 1197.301841 1346.000041 1197.638298 1348.689589 1198.217004 1353.382851 C 1198.795709 1358.076112 1199.670496 1364.773086 1200.733699 1372.787939 C 1202.873564 1388.831092 1205.861299 1410.132312 1209.091282 1431.366292 C 1212.29435 1452.586825 1215.753124 1473.74012 1218.417861 1489.595005 C 1219.777145 1497.515723 1220.894182 1504.118563 1221.688219 1508.731138 C 1222.482257 1513.357161 1222.939838 1515.992918 1222.939838 1515.992918 L 1360.658272 1491.867673 C 1360.658272 1491.867673 1360.21415 1489.32605 1359.447028 1484.8614 C 1358.679907 1480.410199 1357.589788 1474.049418 1356.297794 1466.411102 C 1353.727265 1451.13447 1350.389616 1430.747696 1347.307673 1410.347475 C 1344.212272 1389.960702 1341.345661 1369.600824 1339.313463 1354.33764 C 1338.317551 1346.712772 1337.46968 1340.365439 1336.93135 1335.927685 L 1336.070021 1328.948308 L 1197.288383 1346.000041 Z M 1197.301841 1346.000041" stroke="#000" stroke-width="7.83"/><path transform="matrix(.29025 0 0 .29048 176.074 202.3)" fill="#FFF" d="M 1321.804259 1568.102908 L 1325.195742 1585.302567 L 1344.306479 1581.496857 L 1340.995746 1564.498914 Z M 1321.804259 1568.102908" stroke="#000" stroke-width="7.83"/><path fill="#FFF" d="M 544.894531 660.992188 L 545.878906 666.074219 L 551.453125 664.972656 L 550.464844 659.945312 Z M 544.894531 660.992188"/><g clip-path="url(#b)"><path transform="matrix(.29025 0 0 .29048 176.074 202.3)" fill="none" d="M 1270.703223 1579.103159 L 1274.094706 1596.598669 L 1293.299652 1592.806406 L 1289.894711 1575.499165 Z M 1270.703223 1579.103159" stroke="#000" stroke-width="7.83"/></g><path fill="#FFF" d="M 569.273438 345.101562 C 568.488281 344.234375 568.472656 344.210938 567.894531 342.203125 C 566.019531 335.734375 561.472656 326.828125 555.769531 323.410156 L 554.058594 322.386719 C 553.703125 318.230469 553.683594 311.035156 546.878906 302.234375 C 543.097656 297.339844 537.511719 292.816406 532.292969 290.023438 C 531.691406 287.542969 530.382812 284.320312 525.726562 279.894531 C 523.253906 277.546875 514.171875 258.878906 479.714844 251.976562 C 474.953125 251.023438 468.511719 245.226562 447.601562 245.769531 C 435.925781 239.496094 424.390625 239.066406 411.664062 242.121094 C 399.65625 240.277344 389.511719 241.105469 378.496094 245.304688 C 357.578125 243.261719 341.3125 249.195312 329.390625 260.449219 C 311.726562 258.097656 296.046875 284.285156 287.777344 289.140625 C 280.90625 293.191406 276.011719 301.746094 273.355469 309.679688 C 272.34375 312.714844 272.113281 311.992188 270.03125 316.136719 C 264.15625 327.863281 269.640625 332.453125 269.640625 332.953125 C 269.640625 333.570312 259.957031 345.238281 278.015625 364.425781 C 280.839844 378.152344 289.515625 390.808594 320.886719 396.589844 C 321.925781 399.914062 323.039062 400.941406 326.125 404.109375 C 326.390625 406.414062 326.453125 407.355469 326.917969 408.46875 C 327.285156 409.355469 327.304688 409.492188 327.179688 410.089844 C 325.265625 418.914062 338.527344 424.574219 341.453125 427.003906 C 362.015625 444.035156 379.964844 440.792969 386.214844 441.414062 C 390.191406 441.804688 398.570312 440.820312 408.046875 438.84375 C 410.648438 438.300781 410.492188 438.253906 410.824219 439.144531 C 415.109375 450.695312 425.582031 457.261719 426.136719 458.195312 C 431.902344 467.703125 442.726562 486.753906 444.449219 491.582031 C 446.710938 497.890625 451.042969 504.316406 457.421875 505.992188 C 459.84375 506.628906 462.191406 505.902344 463.554688 505.730469 C 473.054688 504.566406 459.902344 483.269531 460.96875 480.496094 C 461.074219 480.222656 462.339844 480.761719 467.769531 481.898438 C 474.449219 483.304688 477.441406 482.171875 484.289062 483.132812 C 489.84375 483.914062 493.734375 483.53125 503.800781 481.226562 C 511.953125 479.359375 516.808594 477.488281 522.003906 474.203125 C 528.652344 469.996094 533.703125 463.59375 534.199219 458.726562 C 534.289062 457.875 534.296875 457.867188 535.292969 456.847656 C 537.089844 455.011719 537.730469 453.523438 538.324219 449.804688 C 538.738281 447.210938 538.613281 448.78125 537.519531 443.070312 C 547.015625 443.0625 557.003906 442.488281 566.042969 433.109375 C 575.195312 423.625 578.308594 409.078125 578.863281 395.910156 C 578.980469 393.152344 579.851562 356.730469 569.277344 345.101562 Z M 569.273438 345.101562"/><path fill="#FFF" d="M 338.570312 396.941406 L 343.910156 396.941406 C 344.757812 396.941406 345.363281 397.765625 345.113281 398.574219 L 342.964844 405.484375 L 346.585938 405.519531 C 347.535156 405.53125 348.054688 406.632812 347.460938 407.371094 L 338.242188 418.789062 C 337.746094 419.398438 336.78125 418.859375 337.039062 418.117188 L 339.761719 410.363281 L 336.914062 410.304688 C 336.257812 410.289062 335.753906 409.71875 335.820312 409.066406 C 336.074219 406.617188 336.640625 401.101562 336.902344 398.453125 C 336.988281 397.597656 337.707031 396.941406 338.570312 396.941406 Z M 338.570312 396.941406"/><path fill="#FFF" d="M 451.890625 481.714844 L 454.894531 481.714844 C 455.371094 481.714844 455.710938 482.175781 455.570312 482.632812 L 454.363281 486.523438 L 456.402344 486.542969 C 456.933594 486.546875 457.226562 487.167969 456.890625 487.585938 L 451.703125 494.011719 C 451.425781 494.355469 450.878906 494.050781 451.027344 493.632812 L 452.558594 489.269531 L 450.957031 489.234375 C 450.585938 489.226562 450.304688 488.90625 450.339844 488.539062 C 450.484375 487.160156 450.800781 484.054688 450.949219 482.566406 C 451 482.082031 451.40625 481.714844 451.890625 481.714844 Z M 451.890625 481.714844"/><path fill="#FFF" d="M 498.222656 329.957031 L 504.9375 329.957031 C 506.003906 329.957031 506.765625 330.992188 506.449219 332.011719 L 503.75 340.703125 L 508.304688 340.746094 C 509.496094 340.757812 510.152344 342.144531 509.398438 343.074219 L 497.808594 357.429688 C 497.1875 358.199219 495.96875 357.519531 496.296875 356.585938 L 499.722656 346.835938 L 496.140625 346.761719 C 495.316406 346.742188 494.679688 346.023438 494.765625 345.203125 C 495.082031 342.125 495.792969 335.1875 496.125 331.859375 C 496.230469 330.78125 497.136719 329.957031 498.222656 329.957031 Z M 498.222656 329.957031"/><path fill="#FFF" d="M 534.183594 416.726562 L 541.390625 416.726562 C 542.53125 416.726562 543.347656 417.835938 543.007812 418.929688 L 540.113281 428.253906 L 545 428.300781 C 546.28125 428.316406 546.984375 429.800781 546.175781 430.800781 L 533.738281 446.203125 C 533.074219 447.027344 531.765625 446.296875 532.117188 445.296875 L 535.792969 434.835938 L 531.949219 434.753906 C 531.066406 434.734375 530.382812 433.964844 530.476562 433.082031 C 530.816406 429.78125 531.578125 422.335938 531.933594 418.765625 C 532.046875 417.609375 533.019531 416.726562 534.183594 416.726562 Z M 534.183594 416.726562"/><path fill="#FFF" d="M 533.632812 335.46875 L 544.179688 335.46875 C 545.851562 335.46875 547.046875 337.09375 546.550781 338.691406 L 542.3125 352.34375 L 549.464844 352.410156 C 551.339844 352.429688 552.367188 354.605469 551.1875 356.066406 L 532.980469 378.613281 C 532.007812 379.816406 530.09375 378.75 530.609375 377.289062 L 535.988281 361.976562 L 530.363281 361.855469 C 529.066406 361.828125 528.070312 360.699219 528.203125 359.410156 C 528.703125 354.578125 529.820312 343.679688 530.339844 338.453125 C 530.507812 336.757812 531.929688 335.46875 533.632812 335.46875 Z M 533.632812 335.46875"/><path fill="#FFF" d="M 344.164062 262.007812 L 354.171875 262.007812 C 355.761719 262.007812 356.894531 263.546875 356.421875 265.066406 L 352.398438 278.019531 L 359.1875 278.085938 C 360.96875 278.101562 361.941406 280.167969 360.820312 281.554688 L 343.546875 302.949219 C 342.621094 304.09375 340.808594 303.078125 341.292969 301.691406 L 346.398438 287.164062 L 341.0625 287.050781 C 339.832031 287.023438 338.886719 285.953125 339.011719 284.726562 C 339.484375 280.140625 340.546875 269.796875 341.039062 264.839844 C 341.199219 263.230469 342.550781 262.007812 344.164062 262.007812 Z M 344.164062 262.007812"/><path fill="#FFF" d="M 332.316406 318.75 L 341.148438 318.75 C 342.550781 318.75 343.550781 320.109375 343.136719 321.449219 L 339.585938 332.882812 L 345.574219 332.9375 C 347.144531 332.953125 348.003906 334.777344 347.019531 336 L 331.769531 354.882812 C 330.957031 355.890625 329.351562 354.996094 329.785156 353.773438 L 334.289062 340.949219 L 329.578125 340.847656 C 328.492188 340.824219 327.65625 339.878906 327.769531 338.800781 C 328.1875 334.753906 329.121094 325.625 329.558594 321.25 C 329.699219 319.828125 330.890625 318.75 332.316406 318.75 Z M 332.316406 318.75"/><path fill="#FFF" d="M 560.566406 413.332031 L 563.542969 413.332031 C 564.015625 413.332031 564.351562 413.789062 564.210938 414.242188 L 563.015625 418.09375 L 565.035156 418.113281 C 565.5625 418.117188 565.851562 418.730469 565.519531 419.144531 L 560.382812 425.503906 C 560.109375 425.84375 559.570312 425.542969 559.714844 425.132812 L 561.230469 420.808594 L 559.644531 420.777344 C 559.28125 420.769531 559 420.449219 559.035156 420.085938 C 559.175781 418.722656 559.492188 415.648438 559.636719 414.171875 C 559.683594 413.695312 560.085938 413.332031 560.566406 413.332031 Z M 560.566406 413.332031"/><path fill="#FFF" d="M 480.691406 270.113281 L 490.699219 270.113281 C 492.285156 270.113281 493.417969 271.65625 492.945312 273.171875 L 488.925781 286.121094 L 495.710938 286.1875 C 497.492188 286.207031 498.464844 288.269531 497.34375 289.65625 L 480.074219 311.046875 C 479.152344 312.191406 477.335938 311.175781 477.824219 309.789062 L 482.925781 295.261719 L 477.589844 295.148438 C 476.359375 295.125 475.414062 294.050781 475.542969 292.828125 C 476.011719 288.242188 477.074219 277.902344 477.566406 272.945312 C 477.726562 271.339844 479.078125 270.113281 480.691406 270.113281 Z M 480.691406 270.113281"/><path fill="#FFF" d="M 416.777344 419.441406 L 421.496094 419.441406 C 422.246094 419.441406 422.78125 420.167969 422.558594 420.882812 L 420.660156 426.992188 L 423.863281 427.023438 C 424.703125 427.03125 425.160156 428.003906 424.632812 428.65625 L 416.488281 438.746094 C 416.050781 439.285156 415.195312 438.808594 415.425781 438.15625 L 417.832031 431.300781 L 415.316406 431.25 C 414.734375 431.234375 414.289062 430.730469 414.347656 430.152344 C 414.570312 427.992188 415.074219 423.113281 415.304688 420.773438 C 415.378906 420.015625 416.015625 419.441406 416.777344 419.441406 Z M 416.777344 419.441406"/><path fill="#FFF" d="M 316.820312 366.851562 L 322.445312 366.851562 C 323.335938 366.851562 323.972656 367.71875 323.710938 368.570312 L 321.449219 375.851562 L 325.261719 375.890625 C 326.261719 375.898438 326.8125 377.058594 326.183594 377.839844 L 316.472656 389.863281 C 315.953125 390.507812 314.933594 389.9375 315.207031 389.15625 L 318.074219 380.992188 L 315.074219 380.925781 C 314.382812 380.910156 313.851562 380.308594 313.925781 379.621094 C 314.1875 377.042969 314.785156 371.230469 315.0625 368.445312 C 315.152344 367.539062 315.910156 366.851562 316.820312 366.851562 Z M 316.820312 366.851562"/><path fill="#FFF" d="M 511.167969 436.558594 L 514.242188 436.558594 C 514.726562 436.558594 515.078125 437.035156 514.929688 437.5 L 513.695312 441.476562 L 515.78125 441.496094 C 516.328125 441.503906 516.625 442.136719 516.28125 442.5625 L 510.976562 449.132812 C 510.695312 449.484375 510.136719 449.171875 510.285156 448.746094 L 511.851562 444.285156 L 510.214844 444.25 C 509.835938 444.242188 509.546875 443.914062 509.585938 443.539062 C 509.730469 442.128906 510.054688 438.953125 510.207031 437.429688 C 510.257812 436.9375 510.671875 436.558594 511.167969 436.558594 Z M 511.167969 436.558594"/><path fill="#FFF" d="M 561.988281 357.21875 L 565.671875 357.21875 C 566.257812 357.21875 566.671875 357.785156 566.5 358.34375 L 565.019531 363.109375 L 567.515625 363.132812 C 568.171875 363.140625 568.53125 363.898438 568.117188 364.410156 L 561.761719 372.28125 C 561.421875 372.703125 560.753906 372.328125 560.933594 371.820312 L 562.8125 366.472656 L 560.847656 366.429688 C 560.394531 366.421875 560.046875 366.027344 560.09375 365.578125 C 560.265625 363.890625 560.660156 360.082031 560.839844 358.257812 C 560.898438 357.667969 561.394531 357.21875 561.988281 357.21875 Z M 561.988281 357.21875"/><path fill="#FFF" d="M 486.960938 424.433594 L 493.464844 424.433594 C 494.496094 424.433594 495.230469 425.433594 494.925781 426.421875 L 492.3125 434.835938 L 496.722656 434.878906 C 497.878906 434.890625 498.511719 436.234375 497.785156 437.132812 L 486.558594 451.035156 C 485.957031 451.777344 484.777344 451.121094 485.09375 450.21875 L 488.414062 440.777344 L 484.945312 440.703125 C 484.144531 440.6875 483.53125 439.992188 483.613281 439.195312 C 483.917969 436.214844 484.609375 429.496094 484.929688 426.273438 C 485.03125 425.230469 485.910156 424.433594 486.960938 424.433594 Z M 486.960938 424.433594"/><path fill="#FFF" d="M 443.457031 309.371094 L 454.085938 309.371094 C 455.773438 309.371094 456.976562 311.007812 456.476562 312.621094 L 452.203125 326.375 L 459.414062 326.445312 C 461.300781 326.464844 462.335938 328.660156 461.148438 330.128906 L 442.800781 352.851562 C 441.820312 354.066406 439.894531 352.988281 440.410156 351.515625 L 445.832031 336.085938 L 440.164062 335.964844 C 438.859375 335.9375 437.851562 334.800781 437.988281 333.5 C 438.488281 328.628906 439.617188 317.644531 440.136719 312.378906 C 440.308594 310.671875 441.742188 309.371094 443.457031 309.371094 Z M 443.457031 309.371094"/><path fill="#FFF" d="M 378.898438 257.089844 L 382.671875 257.089844 C 383.273438 257.089844 383.699219 257.671875 383.519531 258.242188 L 382.003906 263.125 L 384.5625 263.148438 C 385.234375 263.15625 385.601562 263.933594 385.179688 264.457031 L 378.667969 272.523438 C 378.320312 272.953125 377.636719 272.570312 377.820312 272.046875 L 379.742188 266.570312 L 377.730469 266.527344 C 377.265625 266.519531 376.910156 266.113281 376.957031 265.652344 C 377.136719 263.925781 377.535156 260.027344 377.722656 258.15625 C 377.78125 257.550781 378.292969 257.089844 378.898438 257.089844 Z M 378.898438 257.089844"/><path fill="#FFF" d="M 388.722656 411.867188 L 394.167969 411.867188 C 395.03125 411.867188 395.648438 412.707031 395.394531 413.53125 L 393.203125 420.582031 L 396.898438 420.617188 C 397.867188 420.625 398.394531 421.75 397.789062 422.503906 L 388.386719 434.144531 C 387.882812 434.769531 386.894531 434.214844 387.160156 433.460938 L 389.9375 425.554688 L 387.035156 425.492188 C 386.363281 425.480469 385.851562 424.898438 385.917969 424.230469 C 386.175781 421.734375 386.753906 416.105469 387.019531 413.410156 C 387.109375 412.535156 387.84375 411.867188 388.722656 411.867188 Z M 388.722656 411.867188"/><path fill="#FFF" d="M 363.492188 413.050781 L 367.296875 413.050781 C 367.902344 413.050781 368.332031 413.636719 368.152344 414.214844 L 366.625 419.144531 L 369.207031 419.167969 C 369.882812 419.175781 370.253906 419.960938 369.828125 420.488281 L 363.257812 428.625 C 362.90625 429.0625 362.214844 428.675781 362.398438 428.148438 L 364.339844 422.621094 L 362.3125 422.578125 C 361.84375 422.566406 361.484375 422.160156 361.53125 421.695312 C 361.710938 419.949219 362.113281 416.015625 362.300781 414.128906 C 362.363281 413.519531 362.875 413.050781 363.492188 413.050781 Z M 363.492188 413.050781"/><path fill="#FFF" d="M 565.53125 385.988281 L 569.011719 385.988281 C 569.5625 385.988281 569.957031 386.523438 569.792969 387.050781 L 568.394531 391.554688 L 570.753906 391.578125 C 571.371094 391.585938 571.710938 392.304688 571.324219 392.785156 L 565.316406 400.222656 C 564.996094 400.621094 564.363281 400.269531 564.53125 399.785156 L 566.308594 394.734375 L 564.453125 394.695312 C 564.023438 394.6875 563.695312 394.3125 563.738281 393.886719 C 563.902344 392.292969 564.273438 388.699219 564.445312 386.972656 C 564.5 386.414062 564.96875 385.988281 565.53125 385.988281 Z M 565.53125 385.988281"/><path fill="#FFF" d="M 459.765625 426.632812 L 462.710938 426.632812 C 463.179688 426.632812 463.511719 427.085938 463.375 427.53125 L 462.191406 431.34375 L 464.1875 431.363281 C 464.710938 431.367188 464.996094 431.976562 464.667969 432.382812 L 459.585938 438.679688 C 459.3125 439.015625 458.777344 438.714844 458.921875 438.308594 L 460.425781 434.03125 L 458.855469 434 C 458.492188 433.992188 458.214844 433.675781 458.25 433.316406 C 458.390625 431.96875 458.703125 428.925781 458.847656 427.464844 C 458.894531 426.992188 459.292969 426.632812 459.765625 426.632812 Z M 459.765625 426.632812"/><path fill="#FFF" d="M 278.625 330.308594 L 281.71875 330.308594 C 282.210938 330.308594 282.5625 330.785156 282.414062 331.253906 L 281.171875 335.261719 L 283.269531 335.28125 C 283.820312 335.285156 284.121094 335.925781 283.773438 336.351562 L 278.433594 342.96875 C 278.148438 343.320312 277.585938 343.007812 277.738281 342.578125 L 279.316406 338.085938 L 277.667969 338.050781 C 277.285156 338.042969 276.992188 337.710938 277.03125 337.335938 C 277.179688 335.917969 277.507812 332.71875 277.660156 331.1875 C 277.707031 330.6875 278.125 330.308594 278.625 330.308594 Z M 278.625 330.308594"/><path fill="#FFF" d="M 412.59375 387.808594 L 416.34375 387.808594 C 416.9375 387.808594 417.363281 388.382812 417.1875 388.953125 L 415.679688 393.804688 L 418.222656 393.828125 C 418.890625 393.835938 419.253906 394.609375 418.835938 395.128906 L 412.363281 403.144531 C 412.019531 403.570312 411.339844 403.191406 411.519531 402.671875 L 413.433594 397.230469 L 411.433594 397.1875 C 410.972656 397.175781 410.617188 396.777344 410.664062 396.316406 C 410.84375 394.601562 411.242188 390.726562 411.425781 388.867188 C 411.484375 388.265625 411.992188 387.808594 412.59375 387.808594 Z M 412.59375 387.808594"/><path fill="#FFF" d="M 531.453125 304.425781 L 537.210938 304.425781 C 538.125 304.425781 538.773438 305.3125 538.503906 306.183594 L 536.191406 313.632812 L 540.09375 313.671875 C 541.117188 313.679688 541.675781 314.867188 541.035156 315.664062 L 531.101562 327.964844 C 530.570312 328.625 529.527344 328.039062 529.804688 327.242188 L 532.742188 318.890625 L 529.671875 318.824219 C 528.964844 318.808594 528.421875 318.191406 528.492188 317.488281 C 528.765625 314.851562 529.375 308.90625 529.660156 306.054688 C 529.75 305.128906 530.527344 304.425781 531.453125 304.425781 Z M 531.453125 304.425781"/><path fill="#FFF" d="M 511.921875 394.25 L 518.605469 394.25 C 519.667969 394.25 520.421875 395.277344 520.109375 396.292969 L 517.421875 404.945312 L 521.957031 404.988281 C 523.144531 405 523.792969 406.378906 523.046875 407.304688 L 511.507812 421.59375 C 510.894531 422.355469 509.679688 421.679688 510.003906 420.753906 L 513.414062 411.050781 L 509.851562 410.972656 C 509.027344 410.957031 508.398438 410.238281 508.480469 409.421875 C 508.796875 406.359375 509.507812 399.453125 509.835938 396.140625 C 509.941406 395.066406 510.84375 394.25 511.921875 394.25 Z M 511.921875 394.25"/><path fill="#FFF" d="M 366.574219 300.242188 L 369.671875 300.242188 C 370.160156 300.242188 370.511719 300.71875 370.367188 301.1875 L 369.121094 305.199219 L 371.222656 305.21875 C 371.773438 305.222656 372.074219 305.863281 371.726562 306.289062 L 366.382812 312.910156 C 366.097656 313.265625 365.535156 312.949219 365.6875 312.523438 L 367.265625 308.027344 L 365.613281 307.992188 C 365.234375 307.980469 364.941406 307.652344 364.980469 307.273438 C 365.125 305.851562 365.453125 302.652344 365.605469 301.117188 C 365.65625 300.621094 366.074219 300.242188 366.574219 300.242188 Z M 366.574219 300.242188"/><path fill="#FFF" d="M 351.742188 366.609375 L 358.046875 366.609375 C 359.046875 366.609375 359.761719 367.582031 359.464844 368.535156 L 356.929688 376.695312 L 361.203125 376.738281 C 362.324219 376.746094 362.9375 378.050781 362.234375 378.921875 L 351.351562 392.398438 C 350.769531 393.117188 349.628906 392.480469 349.933594 391.605469 L 353.148438 382.453125 L 349.789062 382.382812 C 349.011719 382.367188 348.417969 381.691406 348.496094 380.921875 C 348.792969 378.03125 349.464844 371.519531 349.773438 368.394531 C 349.875 367.382812 350.726562 366.609375 351.742188 366.609375 Z M 351.742188 366.609375"/><path fill="#FFF" d="M 516.855469 457.859375 L 519.890625 457.859375 C 520.371094 457.859375 520.714844 458.324219 520.570312 458.785156 L 519.351562 462.710938 L 521.410156 462.730469 C 521.949219 462.738281 522.246094 463.363281 521.90625 463.785156 L 516.667969 470.269531 C 516.390625 470.617188 515.839844 470.308594 515.984375 469.886719 L 517.535156 465.484375 L 515.914062 465.449219 C 515.542969 465.441406 515.257812 465.117188 515.292969 464.746094 C 515.4375 463.355469 515.757812 460.21875 515.90625 458.714844 C 515.957031 458.230469 516.367188 457.859375 516.855469 457.859375 Z M 516.855469 457.859375"/><path fill="#FFF" d="M 409.25 248.914062 L 419.113281 248.914062 C 420.679688 248.914062 421.792969 250.433594 421.332031 251.929688 L 417.367188 264.691406 L 424.054688 264.757812 C 425.808594 264.773438 426.765625 266.808594 425.664062 268.171875 L 408.644531 289.253906 C 407.734375 290.378906 405.945312 289.382812 406.425781 288.015625 L 411.453125 273.699219 L 406.195312 273.585938 C 404.984375 273.5625 404.050781 272.503906 404.175781 271.296875 C 404.640625 266.78125 405.6875 256.589844 406.171875 251.707031 C 406.328125 250.121094 407.660156 248.914062 409.25 248.914062 Z M 409.25 248.914062"/><path fill="#FFF" d="M 503.097656 367.230469 L 507.589844 367.230469 C 508.300781 367.230469 508.8125 367.921875 508.601562 368.601562 L 506.792969 374.414062 L 509.839844 374.445312 C 510.640625 374.453125 511.074219 375.378906 510.574219 376 L 502.820312 385.605469 C 502.40625 386.117188 501.589844 385.664062 501.808594 385.039062 L 504.101562 378.519531 L 501.707031 378.46875 C 501.152344 378.457031 500.730469 377.976562 500.785156 377.425781 C 501 375.367188 501.476562 370.726562 501.695312 368.5 C 501.765625 367.777344 502.375 367.230469 503.097656 367.230469 Z M 503.097656 367.230469"/><path fill="#FFF" d="M 466.46875 452.640625 L 472.339844 452.640625 C 473.273438 452.640625 473.9375 453.546875 473.664062 454.4375 L 471.300781 462.035156 L 475.285156 462.074219 C 476.328125 462.085938 476.898438 463.296875 476.242188 464.109375 L 466.105469 476.664062 C 465.566406 477.335938 464.5 476.742188 464.785156 475.925781 L 467.78125 467.402344 L 464.648438 467.335938 C 463.925781 467.320312 463.371094 466.691406 463.445312 465.972656 C 463.722656 463.28125 464.347656 457.214844 464.636719 454.304688 C 464.726562 453.359375 465.519531 452.640625 466.46875 452.640625 Z M 466.46875 452.640625"/><path fill="#FFF" d="M 293.929688 299.683594 L 298.464844 299.683594 C 299.183594 299.683594 299.699219 300.382812 299.484375 301.070312 L 297.660156 306.941406 L 300.738281 306.96875 C 301.542969 306.976562 301.984375 307.914062 301.476562 308.539062 L 293.652344 318.234375 C 293.230469 318.753906 292.410156 318.292969 292.628906 317.664062 L 294.941406 311.082031 L 292.523438 311.03125 C 291.96875 311.019531 291.539062 310.53125 291.597656 309.976562 C 291.808594 307.902344 292.292969 303.214844 292.515625 300.96875 C 292.585938 300.238281 293.199219 299.683594 293.929688 299.683594 Z M 293.929688 299.683594"/><path fill="#FFF" d="M 493.578125 463.128906 L 496.941406 463.128906 C 497.476562 463.128906 497.859375 463.648438 497.699219 464.160156 L 496.347656 468.511719 L 498.628906 468.535156 C 499.226562 468.542969 499.554688 469.234375 499.179688 469.703125 L 493.371094 476.894531 C 493.058594 477.277344 492.449219 476.9375 492.613281 476.472656 L 494.328125 471.585938 L 492.535156 471.546875 C 492.121094 471.539062 491.804688 471.179688 491.847656 470.769531 C 492.003906 469.226562 492.363281 465.75 492.527344 464.082031 C 492.582031 463.542969 493.035156 463.128906 493.578125 463.128906 Z M 493.578125 463.128906"/><path fill="#FFF" d="M 383.070312 381.15625 L 386.5 381.15625 C 387.042969 381.15625 387.433594 381.683594 387.269531 382.203125 L 385.890625 386.640625 L 388.21875 386.664062 C 388.828125 386.667969 389.160156 387.375 388.777344 387.851562 L 382.859375 395.179688 C 382.542969 395.570312 381.921875 395.222656 382.089844 394.75 L 383.835938 389.773438 L 382.007812 389.734375 C 381.585938 389.722656 381.261719 389.355469 381.304688 388.9375 C 381.46875 387.367188 381.832031 383.824219 382 382.125 C 382.054688 381.574219 382.519531 381.15625 383.070312 381.15625 Z M 383.070312 381.15625"/><path fill="#FFF" d="M 476.597656 386.824219 L 484.042969 386.824219 C 485.226562 386.824219 486.066406 387.96875 485.71875 389.097656 L 482.722656 398.730469 L 487.773438 398.78125 C 489.097656 398.792969 489.820312 400.332031 488.988281 401.359375 L 476.140625 417.277344 C 475.453125 418.125 474.101562 417.371094 474.464844 416.339844 L 478.261719 405.53125 L 474.292969 405.449219 C 473.375 405.429688 472.671875 404.632812 472.765625 403.722656 C 473.117188 400.308594 473.90625 392.617188 474.273438 388.929688 C 474.390625 387.734375 475.398438 386.824219 476.597656 386.824219 Z M 476.597656 386.824219"/><path fill="#FFF" d="M 438.234375 444.378906 L 442.988281 444.378906 C 443.742188 444.378906 444.28125 445.113281 444.054688 445.832031 L 442.144531 451.988281 L 445.371094 452.019531 C 446.214844 452.027344 446.675781 453.007812 446.144531 453.664062 L 437.9375 463.828125 C 437.5 464.371094 436.636719 463.890625 436.871094 463.230469 L 439.292969 456.328125 L 436.757812 456.273438 C 436.175781 456.261719 435.726562 455.753906 435.785156 455.171875 C 436.011719 452.992188 436.515625 448.082031 436.746094 445.726562 C 436.824219 444.960938 437.464844 444.378906 438.234375 444.378906 Z M 438.234375 444.378906"/><path fill="#FFF" d="M 370.933594 328.40625 L 379.792969 328.40625 C 381.199219 328.40625 382.203125 329.769531 381.785156 331.113281 L 378.222656 342.582031 L 384.230469 342.636719 C 385.804688 342.652344 386.667969 344.480469 385.679688 345.707031 L 370.386719 364.644531 C 369.570312 365.660156 367.960938 364.761719 368.394531 363.535156 L 372.914062 350.671875 L 368.1875 350.570312 C 367.097656 350.546875 366.261719 349.601562 366.375 348.515625 C 366.792969 344.457031 367.730469 335.304688 368.167969 330.914062 C 368.308594 329.492188 369.503906 328.40625 370.933594 328.40625 Z M 370.933594 328.40625"/><path fill="#FFF" d="M 429.050781 365.785156 L 432.734375 365.785156 C 433.320312 365.785156 433.738281 366.351562 433.5625 366.910156 L 432.082031 371.683594 L 434.582031 371.707031 C 435.238281 371.710938 435.59375 372.472656 435.183594 372.984375 L 428.820312 380.859375 C 428.480469 381.28125 427.8125 380.910156 427.992188 380.398438 L 429.871094 375.046875 L 427.90625 375.003906 C 427.453125 374.996094 427.105469 374.601562 427.152344 374.152344 C 427.328125 372.460938 427.71875 368.65625 427.898438 366.828125 C 427.957031 366.238281 428.453125 365.785156 429.050781 365.785156 Z M 429.050781 365.785156"/><path fill="#FFF" d="M 470.15625 336.972656 L 477.964844 336.972656 C 479.207031 336.972656 480.089844 338.171875 479.722656 339.355469 L 476.582031 349.464844 L 481.878906 349.519531 C 483.269531 349.53125 484.027344 351.144531 483.15625 352.222656 L 469.671875 368.921875 C 468.953125 369.8125 467.535156 369.023438 467.914062 367.941406 L 471.898438 356.601562 L 467.734375 356.511719 C 466.773438 356.492188 466.035156 355.65625 466.136719 354.699219 C 466.503906 351.121094 467.332031 343.050781 467.714844 339.179688 C 467.839844 337.925781 468.894531 336.972656 470.15625 336.972656 Z M 470.15625 336.972656"/><path fill="#FFF" d="M 291.234375 360.132812 L 294.609375 360.132812 C 295.144531 360.132812 295.527344 360.652344 295.367188 361.164062 L 294.011719 365.527344 L 296.300781 365.550781 C 296.898438 365.558594 297.226562 366.253906 296.851562 366.71875 L 291.027344 373.929688 C 290.71875 374.316406 290.105469 373.972656 290.269531 373.507812 L 291.988281 368.609375 L 290.191406 368.570312 C 289.777344 368.5625 289.457031 368.203125 289.5 367.789062 C 289.660156 366.242188 290.015625 362.757812 290.183594 361.085938 C 290.238281 360.546875 290.691406 360.132812 291.234375 360.132812 Z M 291.234375 360.132812"/><path fill="#FFF" d="M 404.339844 333.488281 L 413.394531 333.488281 C 414.828125 333.488281 415.855469 334.882812 415.429688 336.253906 L 411.789062 347.96875 L 417.929688 348.03125 C 419.539062 348.046875 420.417969 349.914062 419.40625 351.167969 L 403.78125 370.519531 C 402.945312 371.550781 401.304688 370.636719 401.746094 369.382812 L 406.363281 356.238281 L 401.535156 356.136719 C 400.421875 356.113281 399.566406 355.144531 399.679688 354.035156 C 400.109375 349.886719 401.070312 340.535156 401.515625 336.050781 C 401.660156 334.59375 402.878906 333.488281 404.339844 333.488281 Z M 404.339844 333.488281"/><path fill="#FFF" d="M 542.601562 388.300781 L 545.898438 388.300781 C 546.421875 388.300781 546.796875 388.808594 546.640625 389.308594 L 545.316406 393.578125 L 547.550781 393.597656 C 548.136719 393.605469 548.457031 394.285156 548.089844 394.742188 L 542.398438 401.792969 C 542.09375 402.167969 541.496094 401.832031 541.65625 401.375 L 543.335938 396.589844 L 541.578125 396.550781 C 541.171875 396.542969 540.863281 396.191406 540.902344 395.785156 C 541.058594 394.273438 541.410156 390.867188 541.570312 389.234375 C 541.625 388.703125 542.070312 388.300781 542.601562 388.300781 Z M 542.601562 388.300781"/><path fill="#FFF" d="M 448.601562 256.484375 L 456.972656 256.484375 C 458.300781 256.484375 459.246094 257.773438 458.855469 259.042969 L 455.488281 269.871094 L 461.164062 269.929688 C 462.652344 269.941406 463.46875 271.667969 462.53125 272.828125 L 448.085938 290.714844 C 447.316406 291.671875 445.796875 290.824219 446.207031 289.664062 L 450.472656 277.515625 L 446.011719 277.421875 C 444.980469 277.398438 444.191406 276.503906 444.296875 275.480469 C 444.691406 271.644531 445.578125 263 445.992188 258.855469 C 446.125 257.507812 447.253906 256.484375 448.601562 256.484375 Z M 448.601562 256.484375"/><path fill="#FFF" d="M 306.105469 333.519531 L 309.375 333.519531 C 309.890625 333.519531 310.261719 334.023438 310.109375 334.519531 L 308.792969 338.746094 L 311.011719 338.769531 C 311.59375 338.773438 311.910156 339.449219 311.542969 339.902344 L 305.90625 346.886719 C 305.601562 347.257812 305.011719 346.929688 305.167969 346.476562 L 306.835938 341.730469 L 305.09375 341.695312 C 304.691406 341.6875 304.382812 341.335938 304.425781 340.9375 C 304.578125 339.441406 304.925781 336.0625 305.085938 334.445312 C 305.136719 333.917969 305.578125 333.519531 306.105469 333.519531 Z M 306.105469 333.519531"/><path fill="#FFF" d="M 439.640625 406.34375 L 443.871094 406.34375 C 444.542969 406.34375 445.019531 406.996094 444.820312 407.636719 L 443.121094 413.109375 L 445.988281 413.140625 C 446.742188 413.144531 447.152344 414.019531 446.679688 414.605469 L 439.378906 423.644531 C 438.988281 424.128906 438.222656 423.699219 438.429688 423.113281 L 440.585938 416.972656 L 438.332031 416.925781 C 437.808594 416.914062 437.410156 416.460938 437.464844 415.945312 C 437.664062 414.007812 438.113281 409.636719 438.320312 407.542969 C 438.386719 406.863281 438.957031 406.34375 439.640625 406.34375 Z M 439.640625 406.34375"/><path fill="#FFF" d="M 450.277344 371.988281 L 456.796875 371.988281 C 457.832031 371.988281 458.566406 372.992188 458.261719 373.980469 L 455.640625 382.414062 L 460.0625 382.457031 C 461.21875 382.46875 461.855469 383.8125 461.125 384.714844 L 449.875 398.648438 C 449.273438 399.390625 448.09375 398.730469 448.410156 397.828125 L 451.734375 388.367188 L 448.257812 388.292969 C 447.457031 388.277344 446.84375 387.578125 446.925781 386.78125 C 447.230469 383.792969 447.921875 377.058594 448.242188 373.832031 C 448.347656 372.785156 449.226562 371.988281 450.277344 371.988281 Z M 450.277344 371.988281"/><path fill="#FFF" d="M 419.558594 294.332031 L 425.585938 294.332031 C 426.542969 294.332031 427.222656 295.257812 426.941406 296.171875 L 424.515625 303.972656 L 428.605469 304.011719 C 429.675781 304.023438 430.261719 305.265625 429.589844 306.101562 L 419.1875 318.984375 C 418.628906 319.671875 417.539062 319.0625 417.832031 318.226562 L 420.90625 309.476562 L 417.691406 309.410156 C 416.949219 309.394531 416.382812 308.75 416.457031 308.011719 C 416.742188 305.25 417.378906 299.023438 417.675781 296.039062 C 417.773438 295.070312 418.585938 294.332031 419.558594 294.332031 Z M 419.558594 294.332031"/><path fill="#FFF" d="M 509.425781 287.773438 L 515.695312 287.773438 C 516.691406 287.773438 517.402344 288.738281 517.105469 289.6875 L 514.585938 297.804688 L 518.835938 297.84375 C 519.953125 297.855469 520.5625 299.152344 519.863281 300.019531 L 509.039062 313.421875 C 508.460938 314.136719 507.324219 313.503906 507.628906 312.632812 L 510.824219 303.53125 L 507.480469 303.460938 C 506.710938 303.445312 506.117188 302.773438 506.199219 302.003906 C 506.492188 299.132812 507.160156 292.652344 507.46875 289.546875 C 507.566406 288.539062 508.414062 287.773438 509.425781 287.773438 Z M 509.425781 287.773438"/><path fill="#FFF" d="M 315.949219 278.972656 L 319.515625 278.972656 C 320.082031 278.972656 320.484375 279.519531 320.316406 280.0625 L 318.882812 284.679688 L 321.304688 284.703125 C 321.9375 284.710938 322.285156 285.445312 321.886719 285.941406 L 315.726562 293.566406 C 315.398438 293.976562 314.75 293.613281 314.925781 293.117188 L 316.746094 287.9375 L 314.84375 287.898438 C 314.402344 287.890625 314.066406 287.507812 314.113281 287.070312 C 314.28125 285.4375 314.660156 281.75 314.835938 279.980469 C 314.890625 279.40625 315.371094 278.972656 315.949219 278.972656 Z M 315.949219 278.972656"/><path fill="#FFF" d="M 390.488281 296.464844 L 394.109375 296.464844 C 394.683594 296.464844 395.09375 297.019531 394.921875 297.570312 L 393.46875 302.253906 L 395.921875 302.277344 C 396.566406 302.285156 396.917969 303.03125 396.511719 303.53125 L 390.265625 311.269531 C 389.933594 311.679688 389.277344 311.316406 389.453125 310.8125 L 391.296875 305.558594 L 389.367188 305.519531 C 388.921875 305.507812 388.582031 305.121094 388.628906 304.679688 C 388.796875 303.019531 389.183594 299.28125 389.359375 297.488281 C 389.417969 296.90625 389.90625 296.464844 390.488281 296.464844 Z M 390.488281 296.464844"/><g fill="#EA4335"><g><g><path d="M 70.859375 -15.1875 L 5.0625 -48.078125 L 5.0625 -58.203125 L 70.859375 -91.109375 L 75.921875 -80.984375 L 75.921875 -78.453125 L 25.3125 -53.140625 L 75.921875 -27.84375 L 75.921875 -25.3125 Z M 70.859375 -15.1875" transform="translate(287.264 400.922)"/></g></g></g><g fill="#FBBC05"><g><g><path d="M 0 20.25 L -10.125 15.1875 L 68.328125 -141.71875 L 70.859375 -141.71875 L 80.984375 -136.65625 L 2.53125 20.25 Z M 0 20.25" transform="translate(388.492 400.922)"/></g></g></g><g fill="#4285F4"><g><g><path d="M 5.0625 -15.1875 L 0 -25.3125 L 0 -27.84375 L 50.609375 -53.140625 L 0 -78.453125 L 0 -80.984375 L 5.0625 -91.109375 L 70.859375 -58.203125 L 70.859375 -48.078125 Z M 5.0625 -15.1875" transform="translate(489.72 400.922)"/></g></g></g></svg>